<?xml version="1.0" encoding="UTF-8"?>
<svg version="1.1" xmlns="http://www.w3.org/2000/svg" width="553" height="452">
<path d="M0 0 C0.99 0 1.98 0 3 0 C4.84892355 8.40736935 6.23964871 16.47218244 6.75390625 25.078125 C7.03274348 28.3887639 7.70899645 31.45385404 8.50805664 34.66967773 C8.99282366 36.96600588 9.23138978 39.14904542 9.40625 41.48828125 C9.86609523 46.88607383 10.49311385 52.25323572 11.15625 57.62890625 C11.26396729 58.50867126 11.37168457 59.38843628 11.48266602 60.29486084 C11.93246175 63.96438129 12.38362067 67.63370027 12.84326172 71.30200195 C14.20967007 82.23620942 15.27894628 93.09656133 15.79833984 104.10424805 C16.04169415 108.80546426 16.48824743 113.45441245 17.0625 118.125 C17.15337891 118.90230469 17.24425781 119.67960937 17.33789062 120.48046875 C17.55374226 122.32088799 17.77604792 124.1605489 18 126 C18.66 126 19.32 126 20 126 C20 126.66 20 127.32 20 128 C20.88429687 128.25523437 21.76859375 128.51046875 22.6796875 128.7734375 C26.05049741 130.01865434 28.28731344 131.44683692 31.125 133.625 C37.78467282 138.61975462 44.58976716 143.5169785 51.8515625 147.60546875 C52.56054688 148.06566406 53.26953125 148.52585937 54 149 C54 149.66 54 150.32 54 151 C54.71027344 151.25007812 55.42054688 151.50015625 56.15234375 151.7578125 C59.30599286 153.13347837 61.79474872 154.83479391 64.5625 156.875 C65.95662109 157.89207031 65.95662109 157.89207031 67.37890625 158.9296875 C70 161 70 161 72.02734375 163.0703125 C74.19294753 165.18874471 76.3815674 166.48634152 79 168 C80.88829801 169.33556092 82.76307067 170.69041709 84.625 172.0625 C87.39027239 174.09667983 90.14333989 176.09555992 93 178 C93 178.66 93 179.32 93 180 C93.56847656 180.2578125 94.13695312 180.515625 94.72265625 180.78125 C97.23317432 182.12478626 99.23882183 183.69063246 101.4375 185.5 C102.75814453 186.56541016 102.75814453 186.56541016 104.10546875 187.65234375 C106.09206266 189.26360278 108.07358108 190.88113377 110.05078125 192.50390625 C117.61583191 198.60377516 125.214402 202.85745743 134 207 C136.2839556 208.21324278 138.53648723 209.46832749 140.78540039 210.74487305 C147.56230487 214.58569169 154.40188483 218.28085517 161.3125 221.875 C167.68607566 225.20483027 173.93210843 228.67154022 180.109375 232.35546875 C183.36388835 234.20702297 186.69741631 235.86257685 190.0625 237.5 C194.38920547 239.62307125 198.47418025 241.85158995 202.5 244.5 C207.58539455 247.83821952 212.89497425 250.53050721 218.3515625 253.19921875 C236.28945866 261.98620205 253.71173854 272.01059064 271 282 C270.67 282.66 270.34 283.32 270 284 C264.77231059 285.02926624 259.50569954 285.26995966 254.19140625 285.51171875 C253.32689346 285.55294357 252.46238068 285.5941684 251.57167053 285.63664246 C242.40676186 286.05644366 233.23728444 286.32101491 224.06713867 286.59594727 C197.25279443 287.40350294 170.4743502 288.61371802 143.6875 290.0625 C142.86831463 290.10665165 142.04912926 290.1508033 141.20512009 290.19629288 C135.70294488 290.4930137 130.20100311 290.79377857 124.69921875 291.09765625 C123.9978051 291.13617958 123.29639145 291.17470291 122.57372284 291.21439362 C104.53159971 292.18050006 104.53159971 292.18050006 86.5625 294 C70.81296161 295.84023438 54.96750027 296.08566575 39.125 296.1875 C37.36953857 296.20707764 37.36953857 296.20707764 35.57861328 296.22705078 C15.59055236 296.24724366 3.50132654 287.49210767 -10.5390625 273.82421875 C-12 272 -12 272 -12.4609375 269.89453125 C-12.72777344 268.95673828 -12.72777344 268.95673828 -13 268 C-13.60070312 267.70222656 -14.20140625 267.40445312 -14.8203125 267.09765625 C-17.92027882 265.5365621 -19.02534557 263.34569161 -20.875 260.4375 C-23.76555056 255.9122186 -26.74579259 251.52488806 -29.96875 247.23046875 C-33.26908922 240.09223505 -29.48986583 232.11699515 -27.3125 225.125 C-26.57271615 222.69537355 -25.83313248 220.26568613 -25.09375 217.8359375 C-24.55234375 216.0739502 -24.55234375 216.0739502 -24 214.27636719 C-22.93645026 210.79178771 -21.91218007 207.29768246 -20.90283203 203.79711914 C-18.83944612 196.64182929 -16.5842749 189.5667113 -14.19140625 182.515625 C-13.41300298 180.21869731 -12.64930642 177.91671876 -11.90234375 175.609375 C-11.39380859 174.03929687 -11.39380859 174.03929687 -10.875 172.4375 C-10.58367187 171.52871094 -10.29234375 170.61992187 -9.9921875 169.68359375 C-8.87505915 166.66206944 -7.48482429 163.85639927 -6 161 C-1.32625889 161.86980294 3.34619853 162.74602312 8.01757812 163.62841797 C9.60946312 163.92679838 11.20293083 164.21672916 12.796875 164.50390625 C18.51697469 165.56922683 24.04770911 167.09608274 29.62890625 168.734375 C33.06453728 169.73976475 36.51218463 170.69540211 39.96484375 171.640625 C50.31952823 174.48296478 60.58324611 177.32195036 70.62109375 181.15234375 C72.8930932 182.11188347 72.8930932 182.11188347 75 182 C70.1352986 178.62173514 65.05506631 175.69913665 59.90234375 172.78125 C57.06483135 171.03978882 54.5933837 169.07980035 52 167 C49.91681407 165.79787376 49.91681407 165.79787376 47.875 164.875 C45.38604485 163.7031573 43.31364293 162.54242862 41 161 C41 160.34 41 159.68 41 159 C39.67935547 158.62101562 39.67935547 158.62101562 38.33203125 158.234375 C34.90056784 156.96316464 32.5836925 155.46397827 29.6875 153.25 C25.4264136 150.03959244 21.10141259 147.06008005 16.58203125 144.2265625 C16.05996094 143.82179688 15.53789063 143.41703125 15 143 C15 142.34 15 141.68 15 141 C13.948125 140.62875 13.948125 140.62875 12.875 140.25 C9.30899488 138.69956299 5.77498016 136.77498016 3 134 C1.98675749 127.57593961 1.70656816 121.16056338 1.46484375 114.66796875 C1.42177597 113.55024078 1.37870819 112.43251282 1.33433533 111.28091431 C1.19585797 107.58330496 1.0655403 103.8854849 0.9375 100.1875 C0.89264465 98.91852875 0.84778931 97.6495575 0.80157471 96.34213257 C-0.30495163 64.23261844 -0.20140678 32.12392541 0 0 Z " fill="#F8F8F8" transform="translate(105,120)"/>
<path d="M0 0 C5.34134252 0.66981466 10.09255224 2.30791813 15.125 4.125 C15.99592285 4.4341333 16.8668457 4.7432666 17.76416016 5.06176758 C20.51102096 6.03680208 23.25567077 7.01786514 26 8 C29.45633845 9.23486008 32.91430401 10.46490276 36.375 11.6875 C37.20854004 11.98205078 38.04208008 12.27660156 38.90087891 12.58007812 C44.83295974 14.65178483 50.79471931 16.38490575 56.85546875 18.04296875 C59.95819935 18.98727806 62.84234458 20.13931299 65.8125 21.4375 C71.38161301 23.86792951 77.02744714 25.54445069 82.86035156 27.19506836 C87.457854 28.50856676 91.83070602 30.05143738 96.234375 31.9230957 C99.47093422 33.18337666 102.74341195 34.19175094 106.06640625 35.203125 C115.73846529 38.18404952 125.30371407 41.46252396 134.875 44.75 C136.69713241 45.37401206 138.51931725 45.99787104 140.34155273 46.62158203 C151.28544409 50.36993842 162.21812601 54.1498441 173.14550781 57.94604492 C186.21384691 62.47582241 199.34821167 66.80838041 212.484375 71.13671875 C213.55413574 71.49048584 214.62389648 71.84425293 215.72607422 72.20874023 C217.75284755 72.87893625 219.78045439 73.54661957 221.80908203 74.21118164 C227.19635859 75.9942943 232.46641633 77.95241707 237.72265625 80.08984375 C246.53217977 83.61063102 253.89304065 86.24146011 263 83 C264.93914736 82.42087899 266.87833604 81.84189372 268.81811523 81.26489258 C274.89283119 79.43079161 280.78105974 77.35286324 286.63671875 74.90234375 C290.07528271 73.58943751 293.59446885 72.69275464 297.1640625 71.80859375 C300.03245193 70.99074718 302.77983377 69.96397431 305.56396484 68.89868164 C312.00658038 66.521926 318.56892756 64.46639276 325.08984375 62.31640625 C331.11035694 60.32299218 337.07469733 58.25933285 343 56 C345.99330861 54.9183081 348.99577499 53.86344582 352 52.8125 C352.86246338 52.51061768 353.72492676 52.20873535 354.61352539 51.89770508 C362.19271211 49.25761155 369.80451763 46.72071719 377.42382812 44.19921875 C385.64004211 41.4726684 393.82190536 38.65075902 402 35.8125 C410.48601001 32.8682684 418.97678512 30.02784873 427.5703125 27.4140625 C435.31733908 24.99335346 442.9635456 22.24197182 450.625 19.56445312 C456.70440896 17.44716437 462.77629513 15.39926446 468.96728516 13.63134766 C471.28001934 12.95149667 471.28001934 12.95149667 474.5 11.5 C480.52864819 8.91629363 486.38099765 6.75267073 493 7 C493.33 6.34 493.66 5.68 494 5 C496.28515625 4.3671875 496.28515625 4.3671875 499.0625 3.875 C499.98160156 3.70742188 500.90070313 3.53984375 501.84765625 3.3671875 C502.91306641 3.18542969 502.91306641 3.18542969 504 3 C504 3.66 504 4.32 504 5 C495.8289953 9.51988047 487.63475098 13.70214877 479.04150391 17.36035156 C474.39613517 19.3517028 469.87584757 21.51448589 465.375 23.8125 C451.72217536 30.76067569 437.64857044 36.84916641 423.63305664 43.02246094 C418.05741736 45.49275201 412.55847581 48.10801596 407.0625 50.75 C401.25755111 53.53817165 395.49983631 56.04066617 389.39453125 58.11328125 C386.85681392 59.05302323 384.52681287 60.19254118 382.125 61.4375 C377.30220846 63.93283676 372.34834023 65.85199197 367.26953125 67.76171875 C360.69076759 70.25331741 354.22061007 72.99041207 347.80859375 75.8828125 C340.4797869 79.18828803 333.16711496 82.39658923 325.625 85.1875 C324.97144531 85.43991455 324.31789063 85.6923291 323.64453125 85.95239258 C320.59891737 87.11641698 317.66415659 88.07409406 314.4765625 88.77734375 C310.85478547 89.72882755 308.78001948 90.46811449 306 93 C303.17827575 99.20125021 302.7788822 106.31092049 302 113 C301.58570065 115.98270112 301.13446593 118.95954538 300.6875 121.9375 C300.57720459 122.7116626 300.46690918 123.4858252 300.35327148 124.28344727 C298.99913835 133.56905831 297.23876059 142.78043838 295.5 152 C295.35033783 152.80009491 295.20067566 153.60018982 295.04647827 154.42453003 C292.81106239 166.34934758 290.35037571 178.1238338 286.625 189.6875 C284.83661619 195.2911479 283.13450691 200.91210667 281.5 206.5625 C279.96982622 211.83614529 278.33681698 217.05176142 276.5625 222.25 C274.64035266 227.91589892 272.96878243 233.60920837 271.375 239.375 C268.63057705 249.22412651 265.47203427 258.92427703 262.25 268.625 C262.00562195 269.36562683 261.7612439 270.10625366 261.50946045 270.86932373 C260.80839488 272.99018397 260.10073416 275.10871536 259.390625 277.2265625 C258.7723584 279.07628662 258.7723584 279.07628662 258.14160156 280.96337891 C257 284 257 284 255 287 C254.34 287 253.68 287 253 287 C251.20698488 283.67011477 249.73029196 280.37681125 248.55859375 276.7890625 C248.29828369 275.99411377 248.03797363 275.19916504 247.76977539 274.38012695 C247.51574951 273.59468506 247.26172363 272.80924316 247 272 C246.7827124 271.33121826 246.5654248 270.66243652 246.34155273 269.97338867 C242.62410077 258.45547615 239.14275811 246.86738218 235.68041992 235.27075195 C233.51589733 228.0261705 231.33102718 220.78827201 229.1171875 213.55859375 C228.87338852 212.76236099 228.62958954 211.96612823 228.37840271 211.14576721 C227.18973651 207.2658621 225.99890956 203.3866308 224.8059082 199.50805664 C216.92464269 173.85012699 216.92464269 173.85012699 215.4375 164.5625 C215.1980813 163.11694381 214.95716605 161.67163479 214.71484375 160.2265625 C214.59737793 159.51918945 214.47991211 158.81181641 214.35888672 158.08300781 C213.80269721 154.85483851 213.15213182 151.6474753 212.5 148.4375 C210.09898387 136.56997758 207.8773363 124.70859431 206.08984375 112.73339844 C205.38288558 108.08394343 204.49012417 103.52455251 203.39916992 98.94921875 C202.91876561 96.60331784 202.84600929 94.38685607 203 92 C202.26394531 91.86980469 201.52789062 91.73960937 200.76953125 91.60546875 C198.2258929 91.0493842 196.07990822 90.31960613 193.6875 89.3125 C189.85089012 87.72968337 185.99150207 86.25256952 182.09399414 84.8293457 C177.0240264 82.97266287 172.03581631 81.1451905 167.25 78.625 C162.48533186 76.12694116 157.56039381 74.16110011 152.5625 72.1875 C145.59794206 69.43702326 138.65499609 66.64723469 131.75 63.75 C130.98888916 63.43313232 130.22777832 63.11626465 129.44360352 62.78979492 C125.13553842 60.97544681 120.95220071 59.00279055 116.78613281 56.88378906 C114.57032364 55.7873936 112.3115226 54.87463017 110 54 C106.97091411 52.81870247 104.06651282 51.57170882 101.1875 50.0625 C97.79419424 48.30781272 94.32979845 46.957315 90.75 45.625 C85.26078246 43.55862019 80.08995261 41.13631684 74.875 38.4609375 C68.96066144 35.4555535 62.87414629 32.8212182 56.80078125 30.15625 C48.75861608 26.62004616 40.81734359 22.98491729 32.98828125 18.9921875 C29.76030384 17.36065079 26.50005204 15.80420137 23.23046875 14.2578125 C22.2046167 13.77223877 21.17876465 13.28666504 20.12182617 12.78637695 C18.08081248 11.82277332 16.03807098 10.86281869 13.9934082 9.90698242 C4.26670186 5.30813539 4.26670186 5.30813539 0 2 C0 1.34 0 0.68 0 0 Z " fill="#F2F2F2" transform="translate(22,56)"/>
<path d="M0 0 C0.66 0 1.32 0 2 0 C2.95362814 14.97674073 3.15569238 29.91096386 3.13037109 44.91577148 C3.12503262 48.66459238 3.13033862 52.41329219 3.13671875 56.16210938 C3.14084558 70.94592987 2.81109082 85.68083584 2.11761475 100.4480896 C1.9645939 103.76821319 1.8396357 107.0887125 1.71875 110.41015625 C1.64584895 112.29427144 1.57293344 114.17838607 1.5 116.0625 C1.46519531 117.02736328 1.43039062 117.99222656 1.39453125 118.98632812 C1.28869492 121.65960784 1.14913879 124.32884573 1 127 C0.97856934 127.76642822 0.95713867 128.53285645 0.93505859 129.32250977 C0.70716205 133.0332972 0.38043063 134.64992947 -2.3984375 137.20703125 C-3.38070312 137.73683594 -4.36296875 138.26664063 -5.375 138.8125 C-8.70493855 140.66197775 -11.38128396 142.24385863 -14 145 C-15.63406066 145.93374895 -17.27000306 146.86445432 -18.91796875 147.7734375 C-22.2300847 149.72466528 -25.31909481 151.98081268 -28.453125 154.203125 C-33.51280362 157.77283691 -38.6636084 161.19284124 -43.9375 164.4375 C-47.02727779 166.34408907 -49.98350227 168.38935039 -52.9375 170.5 C-56.80822498 173.24275298 -60.74846661 175.58611125 -64.92578125 177.82421875 C-66.86075937 178.92107075 -68.59610472 180.10649759 -70.375 181.4375 C-74.01858086 184.12224379 -77.91190118 186.19757942 -81.8984375 188.328125 C-85.35641091 190.19212074 -88.77596473 192.11520169 -92.1875 194.0625 C-92.78425537 194.40192627 -93.38101074 194.74135254 -93.99584961 195.09106445 C-97.27321556 196.96755103 -100.46976763 198.92589008 -103.625 201 C-107 203 -107 203 -111 203 C-111 203.66 -111 204.32 -111 205 C-112.28913487 205.67154933 -113.58140204 206.33708859 -114.875 207 C-115.59429687 207.37125 -116.31359375 207.7425 -117.0546875 208.125 C-119 209 -119 209 -121 209 C-121.495 209.99 -121.495 209.99 -122 211 C-124.5625 211.625 -124.5625 211.625 -127 212 C-127 211.01 -127 210.02 -127 209 C-124.69921875 206.7734375 -124.69921875 206.7734375 -121.6875 204.375 C-120.70136719 203.57835937 -119.71523438 202.78171875 -118.69921875 201.9609375 C-116 200 -116 200 -113 199 C-112.31915274 197.67385173 -111.65371027 196.33973322 -111 195 C-109.44140625 193.61328125 -109.44140625 193.61328125 -107.5625 192.3125 C-104.18055756 189.88725119 -100.95162682 187.34702792 -97.75 184.6875 C-93.72511195 181.37652366 -89.65475729 178.14525533 -85.5 175 C-84.5203125 174.2575 -83.540625 173.515 -82.53125 172.75 C-80 171 -80 171 -77 170 C-77 169.34 -77 168.68 -77 168 C-74.98828125 166.66796875 -74.98828125 166.66796875 -72.3125 165.1875 C-68.250724 162.83955353 -65.23787909 160.41776127 -62 157 C-60.02866014 155.62464661 -58.02318078 154.29788956 -56 153 C-54.32937388 151.83901023 -52.66302742 150.67184841 -51 149.5 C-49.33356918 148.33299649 -47.66692089 147.16630341 -46 146 C-45.3709375 145.55785156 -44.741875 145.11570312 -44.09375 144.66015625 C-40.23131673 142 -40.23131673 142 -38 142 C-38 141.34 -38 140.68 -38 140 C-37.46632813 139.72027344 -36.93265625 139.44054687 -36.3828125 139.15234375 C-30.26240104 135.85918118 -24.61352629 132.0913784 -19 128 C-18.25621094 127.55398437 -17.51242187 127.10796875 -16.74609375 126.6484375 C-14.75805789 125.08708709 -14.75805789 125.08708709 -14.4609375 122.390625 C-14.43257813 121.35421875 -14.40421875 120.3178125 -14.375 119.25 C-14.15203509 114.5210698 -13.75961733 109.93292557 -13.0625 105.25 C-12.13137161 98.57463102 -11.56416754 91.9078737 -11.0625 85.1875 C-10.07430468 72.07870519 -8.61778969 59.04473874 -7 46 C-6.91250488 45.29294922 -6.82500977 44.58589844 -6.73486328 43.85742188 C-6.29583502 40.35633392 -5.82499688 36.86022785 -5.33300781 33.36621094 C-5.0674272 31.47910879 -4.80429323 29.59166236 -4.54199219 27.70410156 C-4.01077668 23.88555245 -3.47476189 20.06770283 -2.9375 16.25 C-2.7629126 14.99783691 -2.5883252 13.74567383 -2.40844727 12.45556641 C-2.24143311 11.27913574 -2.07441895 10.10270508 -1.90234375 8.890625 C-1.75273193 7.82875977 -1.60312012 6.76689453 -1.44897461 5.67285156 C-1 3 -1 3 0 0 Z " fill="#E3E3E3" transform="translate(444,120)"/>
<path d="M0 0 C0.99 0 1.98 0 3 0 C4.84892355 8.40736935 6.23964871 16.47218244 6.75390625 25.078125 C7.03274348 28.3887639 7.70899645 31.45385404 8.50805664 34.66967773 C8.99282366 36.96600588 9.23138978 39.14904542 9.40625 41.48828125 C9.86609523 46.88607383 10.49311385 52.25323572 11.15625 57.62890625 C11.26396729 58.50867126 11.37168457 59.38843628 11.48266602 60.29486084 C11.93246175 63.96438129 12.38362067 67.63370027 12.84326172 71.30200195 C14.20967007 82.23620942 15.27894628 93.09656133 15.79833984 104.10424805 C16.04169415 108.80546426 16.48824743 113.45441245 17.0625 118.125 C17.15337891 118.90230469 17.24425781 119.67960937 17.33789062 120.48046875 C17.55374226 122.32088799 17.77604792 124.1605489 18 126 C18.66 126 19.32 126 20 126 C20 126.66 20 127.32 20 128 C20.88429688 128.25523437 21.76859375 128.51046875 22.6796875 128.7734375 C26.05049741 130.01865434 28.28731344 131.44683692 31.125 133.625 C37.78467282 138.61975462 44.58976716 143.5169785 51.8515625 147.60546875 C52.56054688 148.06566406 53.26953125 148.52585937 54 149 C54 149.66 54 150.32 54 151 C54.71027344 151.25007812 55.42054688 151.50015625 56.15234375 151.7578125 C59.30599286 153.13347837 61.79474872 154.83479391 64.5625 156.875 C65.95662109 157.89207031 65.95662109 157.89207031 67.37890625 158.9296875 C70 161 70 161 72.02734375 163.0703125 C74.19294753 165.18874471 76.3815674 166.48634152 79 168 C80.88829801 169.33556092 82.76307067 170.69041709 84.625 172.0625 C87.39027239 174.09667983 90.14333989 176.09555992 93 178 C93 178.66 93 179.32 93 180 C93.55429688 180.24878906 94.10859375 180.49757813 94.6796875 180.75390625 C97.41991242 182.22550852 99.69844052 183.99263069 102.125 185.9375 C102.99382812 186.62714844 103.86265625 187.31679688 104.7578125 188.02734375 C107 190 107 190 109 193 C104.94785821 191.25477062 101.69396039 188.5771843 98.25 185.875 C97.34701172 185.17310547 97.34701172 185.17310547 96.42578125 184.45703125 C94.94813384 183.30774993 93.47373995 182.15428765 92 181 C90.02 181.99 90.02 181.99 88 183 C88.33 183.99 88.66 184.98 89 186 C88.67 186.99 88.34 187.98 88 189 C83.27934033 187.45730076 78.58335908 185.92205381 74 184 C74.33 183.34 74.66 182.68 75 182 C70.1352986 178.62173514 65.05506631 175.69913665 59.90234375 172.78125 C57.06483135 171.03978882 54.5933837 169.07980035 52 167 C49.91681407 165.79787376 49.91681407 165.79787376 47.875 164.875 C45.38604485 163.7031573 43.31364293 162.54242862 41 161 C41 160.34 41 159.68 41 159 C40.11957031 158.74734375 39.23914063 158.4946875 38.33203125 158.234375 C34.90056784 156.96316464 32.5836925 155.46397827 29.6875 153.25 C25.4264136 150.03959244 21.10141259 147.06008005 16.58203125 144.2265625 C16.05996094 143.82179688 15.53789063 143.41703125 15 143 C15 142.34 15 141.68 15 141 C13.948125 140.62875 13.948125 140.62875 12.875 140.25 C9.30899488 138.69956299 5.77498016 136.77498016 3 134 C1.98675749 127.57593961 1.70656816 121.16056338 1.46484375 114.66796875 C1.42177597 113.55024078 1.37870819 112.43251282 1.33433533 111.28091431 C1.19585797 107.58330496 1.0655403 103.8854849 0.9375 100.1875 C0.89264465 98.91852875 0.84778931 97.6495575 0.80157471 96.34213257 C-0.30495163 64.23261844 -0.20140678 32.12392541 0 0 Z " fill="#DADADA" transform="translate(105,120)"/>
<path d="M0 0 C-0.62213379 0.18433594 -1.24426758 0.36867187 -1.88525391 0.55859375 C-6.75158751 2.20539567 -6.75158751 2.20539567 -10.06933594 5.8828125 C-10.70032151 8.25778685 -11.07456507 10.56091516 -11.375 13 C-11.59192505 14.3449353 -11.59192505 14.3449353 -11.81323242 15.71704102 C-12.24914364 18.47378705 -12.6299887 21.23372502 -13 24 C-13.2149249 25.4886477 -13.43222601 26.97695503 -13.65234375 28.46484375 C-13.9883478 30.73701463 -14.32269175 33.00918543 -14.64599609 35.28320312 C-16.00263325 44.56863079 -17.76120017 53.78023031 -19.5 63 C-19.64966217 63.80009491 -19.79932434 64.60018982 -19.95352173 65.42453003 C-22.18893761 77.34934758 -24.64962429 89.1238338 -28.375 100.6875 C-30.16338381 106.2911479 -31.86549309 111.91210667 -33.5 117.5625 C-35.03017378 122.83614529 -36.66318302 128.05176142 -38.4375 133.25 C-40.35965385 138.91591812 -42.03092775 144.60927815 -43.625 150.375 C-46.16938795 159.49057667 -49.03361828 168.49201578 -52.00018311 177.47735596 C-52.49951602 178.99080008 -52.99630847 180.50508478 -53.49053955 182.02020264 C-54.188901 184.15681214 -54.89747595 186.28974355 -55.609375 188.421875 C-56.2276416 190.28730957 -56.2276416 190.28730957 -56.85839844 192.19042969 C-58 195 -58 195 -60 196 C-58.80328546 190.55179957 -57.50552019 185.19257626 -55.5 179.98046875 C-55.2333252 179.27978271 -54.96665039 178.57909668 -54.69189453 177.85717773 C-54.17035515 176.51186799 -53.63130589 175.17312918 -53.06982422 173.84399414 C-48.71224239 162.54125556 -49.87281067 148.7644331 -49.95359612 136.80308342 C-49.97339867 133.01649638 -49.9575147 129.22996347 -49.94726562 125.44335938 C-49.93506164 120.68186261 -49.93345819 115.92127031 -49.97583008 111.15991211 C-50.0095985 107.25698962 -50.00353108 103.35580449 -49.97226143 99.45288277 C-49.96740884 97.98877344 -49.97626029 96.52453844 -50.00047112 95.06062126 C-50.1564504 85.05365872 -48.18781784 77.88312652 -43.04605103 69.40776062 C-40.97148859 65.95251337 -39.29307552 62.52980557 -37.62109375 58.8671875 C-36.82735352 57.13275391 -36.82735352 57.13275391 -36.01757812 55.36328125 C-35.49615234 54.21214844 -34.97472656 53.06101563 -34.4375 51.875 C-30.72662044 43.68829883 -26.8641595 35.70114161 -22.50024414 27.84423828 C-21.14085682 25.26704344 -20.02407575 22.72434526 -19 20 C-12.1891367 2.34972022 -12.1891367 2.34972022 -6.25 -0.375 C-3 -1 -3 -1 0 0 Z " fill="#858585" transform="translate(337,145)"/>
<path d="M0 0 C0.99 0.495 0.99 0.495 2 1 C2 2.32 2 3.64 2 5 C2.99 5 3.98 5 5 5 C5.32162109 5.70382813 5.64324219 6.40765625 5.97460938 7.1328125 C12.10638184 20.53349069 18.29353963 33.87701373 25 47 C29.33942183 55.50617127 33.56196301 63.95436785 37.08984375 72.83984375 C37.81526741 74.94095817 37.81526741 74.94095817 39 76 C39.12507482 78.61600453 39.18605405 81.20691934 39.20532227 83.82446289 C39.21522186 84.64390884 39.22512146 85.4633548 39.23532104 86.30763245 C39.26703055 89.02927717 39.29173062 91.75093939 39.31640625 94.47265625 C39.33696763 96.35453253 39.35796388 98.23640411 39.37937927 100.11827087 C39.43468426 105.08143311 39.48405623 110.0446376 39.53222656 115.00787354 C39.58238022 120.06843851 39.63809824 125.1289418 39.69335938 130.18945312 C39.80104395 140.12624945 39.90246589 150.06309923 40 160 C37.50447411 156.81513275 36.25489757 154.21714602 35.125 150.3125 C34.7849292 149.15621094 34.4448584 147.99992188 34.09448242 146.80859375 C33.73330322 145.55175781 33.37212402 144.29492188 33 143 C32.41289044 140.99244594 31.82264448 138.98583047 31.23222351 136.97924805 C30.81488771 135.56041127 30.39849579 134.14129656 29.98298645 132.72192383 C27.23958338 123.36532509 24.3574289 114.0509407 21.48950195 104.73193359 C12.93617628 76.92215752 12.93617628 76.92215752 11.4375 67.5625 C11.1980813 66.11694381 10.95716605 64.67163479 10.71484375 63.2265625 C10.59737793 62.51918945 10.47991211 61.81181641 10.35888672 61.08300781 C9.80269721 57.85483851 9.15213182 54.6474753 8.5 51.4375 C6.25524016 40.34230683 4.15554396 29.24133388 2.375 18.0625 C2.25189453 17.29389648 2.12878906 16.52529297 2.00195312 15.73339844 C1.18375962 10.50102838 0.55441102 5.26690467 0 0 Z " fill="#ABABAB" transform="translate(226,153)"/>
<path d="M0 0 C4.27835327 1.12052109 7.09391331 2.66985643 10.3984375 5.6015625 C12.69148989 7.60378874 15.13607098 9.3641842 17.609375 11.13671875 C20 13 20 13 22.640625 15.58203125 C33.72543853 26.04176131 47.48462846 27.97560318 62 31 C65.21540006 31.70133813 68.42120512 32.43529478 71.625 33.1875 C72.83414063 33.44917969 74.04328125 33.71085937 75.2890625 33.98046875 C78 35 78 35 79.3984375 37.11328125 C79.69621094 38.04720703 79.69621094 38.04720703 80 39 C79 40 79 40 75.2578125 40.01953125 C64.61345694 39.65681263 54.10970526 38.66634095 43.5625 37.1875 C42.40830566 37.03450439 41.25411133 36.88150879 40.06494141 36.72387695 C28.45746948 34.99413939 22.9826743 29.28199457 14.9375 21.125 C14.05255859 20.23941406 13.16761719 19.35382813 12.25585938 18.44140625 C0.13459852 6.23830643 0.13459852 6.23830643 -0.3125 2.125 C-0.209375 1.42375 -0.10625 0.7225 0 0 Z " fill="#1990C9" transform="translate(139,168)"/>
<path d="M0 0 C-1.28566696 3.68142873 -2.73446843 6.1381103 -5.4140625 8.9609375 C-6.09339844 9.68023437 -6.77273438 10.39953125 -7.47265625 11.140625 C-8.18292969 11.87796875 -8.89320313 12.6153125 -9.625 13.375 C-10.31207031 14.10460937 -10.99914062 14.83421875 -11.70703125 15.5859375 C-15.72307075 19.80541615 -19.86714864 23.74644215 -24.32470703 27.49731445 C-26.21255624 29.10793728 -26.21255624 29.10793728 -28.25 31.8125 C-31.8865293 34.70519376 -34.90476972 34.9527449 -39.453125 35.53515625 C-42.63663112 35.95237787 -45.75391784 36.52605954 -48.90161133 37.15258789 C-59.22699037 39.16961074 -69.50062024 39.68512718 -80 40 C-80 38.68 -80 37.36 -80 36 C-76.60785596 34.92548726 -73.21110243 33.86640132 -69.8125 32.8125 C-68.77834961 32.49007324 -67.74419922 32.16764648 -66.67871094 31.83544922 C-60.63088538 29.98683729 -54.62025669 28.43985214 -48.42578125 27.17529297 C-39.41456959 25.32207481 -33.57602373 23.35582544 -26.86328125 16.79296875 C-25 15 -25 15 -23 15 C-23 14.34 -23 13.68 -23 13 C-20.63944406 11.10264749 -18.2744489 9.31907191 -15.8125 7.5625 C-15.13896484 7.07201172 -14.46542969 6.58152344 -13.77148438 6.07617188 C-3.67296221 -1.22432074 -3.67296221 -1.22432074 0 0 Z " fill="#206586" transform="translate(423,168)"/>
<path d="M0 0 C0 0.66 0 1.32 0 2 C-8.15910974 6.51330065 -16.33862617 10.70258965 -24.92553711 14.34277344 C-30.58394998 16.76081612 -36.06330502 19.47317394 -41.50952148 22.3359375 C-45.63348772 24.4644362 -49.52911473 25.86645509 -54 27 C-53.34 26.01 -52.68 25.02 -52 24 C-52.30840599 21.84725052 -52.30840599 21.84725052 -53 20 C-57.5625145 20.89771697 -61.92776972 21.88455995 -66.25 23.625 C-69.5496859 24.83488483 -71.56060638 25.32244315 -75 25 C-71.90709324 22.93806216 -69.22351822 21.92573704 -65.71484375 20.72265625 C-65.09912003 20.51064072 -64.4833963 20.29862518 -63.84901428 20.08018494 C-62.54432925 19.63190125 -61.23892489 19.18570642 -59.93286133 18.74145508 C-57.96724845 18.07262241 -56.00397757 17.39727117 -54.04101562 16.72070312 C-47.73255274 14.55528768 -41.41767391 12.45964277 -35.00415039 10.62475586 C-32.71569801 9.94894885 -32.71569801 9.94894885 -29.5 8.5 C-23.47135181 5.91629363 -17.61900235 3.75267073 -11 4 C-10.67 3.34 -10.34 2.68 -10 2 C-6.54956883 0.84985628 -3.64717645 0 0 0 Z " fill="#A5A5A5" transform="translate(526,59)"/>
<path d="M0 0 C5.34121584 0.66979877 10.09275255 2.30755387 15.125 4.125 C16.90099627 4.75663808 18.67703937 5.3881445 20.453125 6.01953125 C21.36384766 6.34518066 22.27457031 6.67083008 23.21289062 7.00634766 C27.76022296 8.62754971 32.31779722 10.21930395 36.875 11.8125 C37.70016113 12.10205566 38.52532227 12.39161133 39.37548828 12.68994141 C43.57271939 14.16118045 47.77569612 15.6077455 52 17 C52 17.33 52 17.66 52 18 C49.03 18.495 49.03 18.495 46 19 C46 20.65 46 22.3 46 24 C46.66 24.0825 47.32 24.165 48 24.25 C51.99039163 25.24759791 55.38549643 27.07166683 59 29 C56 30 56 30 54.25805664 29.36547852 C53.62762451 29.01928467 52.99719238 28.67309082 52.34765625 28.31640625 C51.64012207 27.94016113 50.93258789 27.56391602 50.20361328 27.17626953 C49.4764209 26.78810059 48.74922852 26.39993164 48 26 C46.62806279 25.33338882 45.25170559 24.67579815 43.87109375 24.02734375 C43.15719482 23.69049561 42.4432959 23.35364746 41.70776367 23.0065918 C40.95857666 22.6537915 40.20938965 22.30099121 39.4375 21.9375 C37.77594772 21.15124017 36.11449406 20.3647719 34.453125 19.578125 C31.62817378 18.24152189 28.80230554 16.90695981 25.97460938 15.57617188 C22.87684621 14.11760125 19.78202041 12.65293572 16.6875 11.1875 C15.71546631 10.73173584 14.74343262 10.27597168 13.74194336 9.80639648 C8.91022231 7.51239552 4.24497038 5.27794195 0 2 C0 1.34 0 0.68 0 0 Z " fill="#B6B6B6" transform="translate(22,56)"/>
<path d="M0 0 C0.66 0.33 1.32 0.66 2 1 C0.02 2.65 -1.96 4.3 -4 6 C-3.505 7.485 -3.505 7.485 -3 9 C-3.99 9.66 -4.98 10.32 -6 11 C-8.2773501 13.81509993 -8.2773501 13.81509993 -8 17 C-7.34 17.33 -6.68 17.66 -6 18 C-7.03060547 18.61488281 -7.03060547 18.61488281 -8.08203125 19.2421875 C-8.98308594 19.78101563 -9.88414062 20.31984375 -10.8125 20.875 C-11.70582031 21.40867187 -12.59914063 21.94234375 -13.51953125 22.4921875 C-15.37294724 23.61883092 -17.19529917 24.79686611 -19 26 C-20.32 26 -21.64 26 -23 26 C-23 26.66 -23 27.32 -23 28 C-24.28913487 28.67154933 -25.58140204 29.33708859 -26.875 30 C-27.59429687 30.37125 -28.31359375 30.7425 -29.0546875 31.125 C-31 32 -31 32 -33 32 C-33.33 32.66 -33.66 33.32 -34 34 C-36.5625 34.625 -36.5625 34.625 -39 35 C-39 34.01 -39 33.02 -39 32 C-36.69921875 29.7734375 -36.69921875 29.7734375 -33.6875 27.375 C-32.70136719 26.57835937 -31.71523438 25.78171875 -30.69921875 24.9609375 C-28 23 -28 23 -25 22 C-24.31915274 20.67385173 -23.65371027 19.33973322 -23 18 C-21.44140625 16.61328125 -21.44140625 16.61328125 -19.5625 15.3125 C-15.05123039 12.0795609 -10.79130434 8.58737887 -6.515625 5.05078125 C-4.37993051 3.30972596 -2.21875059 1.63295896 0 0 Z " fill="#D4D4D4" transform="translate(356,297)"/>
<path d="M0 0 C4.94425674 -0.16873257 9.02907885 0.32819596 13.78125 1.6796875 C15.66263672 2.20755859 15.66263672 2.20755859 17.58203125 2.74609375 C18.88807975 3.12219128 20.19406893 3.49849492 21.5 3.875 C22.80575478 4.24432076 24.11174305 4.61281703 25.41796875 4.98046875 C28.94791853 5.97814212 32.47445383 6.98689428 36 8 C37.27423828 8.30824707 38.54847656 8.61649414 39.86132812 8.93408203 C40.89708984 9.28583496 41.93285156 9.63758789 43 10 C43.495 11.485 43.495 11.485 44 13 C43 14 43 14 41.26025391 14.06933594 C38.71432368 13.97461884 36.16974973 13.87305021 33.625 13.75 C32.69212158 13.70625244 31.75924316 13.66250488 30.7980957 13.61743164 C21.41083756 13.09745621 12.24087276 11.67919859 3 10 C4.32 9.67 5.64 9.34 7 9 C7 8.34 7 7.68 7 7 C6.34 6.67 5.68 6.34 5 6 C5.63808594 6.01160156 6.27617187 6.02320313 6.93359375 6.03515625 C7.75988281 6.04417969 8.58617187 6.05320313 9.4375 6.0625 C10.67306641 6.07990234 10.67306641 6.07990234 11.93359375 6.09765625 C13.99163938 6.23267348 13.99163938 6.23267348 15 5 C13.80375 5.020625 12.6075 5.04125 11.375 5.0625 C7.81995131 5.06882571 4.49444376 4.69888875 1 4 C0.67 2.68 0.34 1.36 0 0 Z " fill="#10A3EB" transform="translate(175,194)"/>
<path d="M0 0 C-0.62213379 0.18433594 -1.24426758 0.36867187 -1.88525391 0.55859375 C-6.75158751 2.20539567 -6.75158751 2.20539567 -10.06933594 5.8828125 C-10.70028113 8.25763488 -11.07488506 10.56107055 -11.375 13 C-11.51671631 13.88067139 -11.65843262 14.76134277 -11.80444336 15.66870117 C-12.24199678 18.44151435 -12.62328106 21.21833862 -13 24 C-13.26091322 25.7466065 -13.52515562 27.49271942 -13.79296875 29.23828125 C-14.17752899 31.75899296 -14.55779563 34.27977782 -14.9206543 36.80371094 C-15.99520702 44.26683284 -17.42484531 51.62693551 -19 59 C-19.33 59 -19.66 59 -20 59 C-19.45721733 50.98529415 -18.86494739 42.98696098 -18 35 C-18.66 35 -19.32 35 -20 35 C-20 34.01 -20 33.02 -20 32 C-20.66 31.67 -21.32 31.34 -22 31 C-22.45753958 26.29900508 -20.84250207 22.86616199 -18.8125 18.75 C-18.49152344 18.0890332 -18.17054688 17.42806641 -17.83984375 16.74707031 C-17.19601402 15.43043851 -16.54719354 14.11623381 -15.89306641 12.8046875 C-15.12698978 11.25661795 -14.39408179 9.69221173 -13.66796875 8.125 C-11.7760862 4.27796123 -10.33244583 1.74609363 -6.375 -0.125 C-3 -1 -3 -1 0 0 Z " fill="#666666" transform="translate(337,145)"/>
<path d="M0 0 C4.26491514 1.11700159 7.08036807 2.65216844 10.37109375 5.58203125 C12.16003203 7.13930846 14.02576709 8.53408914 15.9375 9.9375 C19.78432172 12.79111534 23.39587688 15.84639227 27 19 C24.37886292 19 22.49064888 18.68707555 20 18 C19.1844621 19.79868332 19.1844621 19.79868332 19 22 C20.4086817 24.01492568 20.4086817 24.01492568 22.4375 25.75 C23.09621094 26.36359375 23.75492188 26.9771875 24.43359375 27.609375 C24.95050781 28.06828125 25.46742188 28.5271875 26 29 C23 29 23 29 21.08642578 27.44287109 C20.3798584 26.72695801 19.67329102 26.01104492 18.9453125 25.2734375 C18.16542969 24.48839844 17.38554687 23.70335937 16.58203125 22.89453125 C15.77121094 22.06308594 14.96039063 21.23164063 14.125 20.375 C13.32191406 19.56675781 12.51882812 18.75851563 11.69140625 17.92578125 C0.13195444 6.21398081 0.13195444 6.21398081 -0.3125 2.125 C-0.209375 1.42375 -0.10625 0.7225 0 0 Z " fill="#0C688D" transform="translate(139,168)"/>
<path d="M0 0 C-3.72814882 3.41746975 -7.99361839 4.38205861 -12.75 5.6875 C-13.54277344 5.91244141 -14.33554687 6.13738281 -15.15234375 6.36914062 C-17.09941048 6.92041856 -19.04942946 7.46125071 -21 8 C-15.39 8.33 -9.78 8.66 -4 9 C-4 9.33 -4 9.66 -4 10 C-16.00312496 12.66549842 -27.72018232 13.63512837 -40 14 C-40 12.68 -40 11.36 -40 10 C-7.02803738 -0.21259188 -7.02803738 -0.21259188 0 0 Z " fill="#15729D" transform="translate(383,194)"/>
<path d="M0 0 C1.32 0.66 2.64 1.32 4 2 C4 2.99 4 3.98 4 5 C3.34 5 2.68 5 2 5 C2 6.32 2 7.64 2 9 C-3.56640625 11.1484375 -3.56640625 11.1484375 -6 12 C-7.051875 12.37125 -8.10375 12.7425 -9.1875 13.125 C-13.79416157 14.18226659 -17.76144298 14.0017975 -22.4375 13.625 C-23.26443359 13.56828125 -24.09136719 13.5115625 -24.94335938 13.453125 C-26.96302888 13.31303232 -28.98165637 13.15805019 -31 13 C-27.99697436 9.65588996 -24.82372521 8.93028785 -20.5625 7.9375 C-16.49301659 6.96035307 -12.70913948 5.99087442 -9 4 C-7.80375 3.67 -6.6075 3.34 -5.375 3 C-1.96285798 2.28091922 -1.96285798 2.28091922 0 0 Z " fill="#12A4EB" transform="translate(392,190)"/>
<path d="M0 0 C0.66 0 1.32 0 2 0 C2.89292607 14.59687485 3.12524854 29.1284054 3.0625 43.75 C3.05746626 45.82682182 3.05290673 47.90364484 3.04882812 49.98046875 C3.0379909 54.98700987 3.02083374 59.99349092 3 65 C2.01 65.495 2.01 65.495 1 66 C1 48.84 1 31.68 1 14 C0.34 14 -0.32 14 -1 14 C-1.33 15.65 -1.66 17.3 -2 19 C-3.53333127 15.93333746 -2.62932153 13.40967511 -2.125 10.0625 C-1.94195312 8.81597656 -1.75890625 7.56945312 -1.5703125 6.28515625 C-1 3 -1 3 0 0 Z " fill="#7B7B7B" transform="translate(444,120)"/>
<path d="M0 0 C5.3411941 0.66979604 10.09278279 2.30748271 15.125 4.125 C16.89317583 4.75405619 18.66140674 5.38295757 20.4296875 6.01171875 C21.79432129 6.49970947 21.79432129 6.49970947 23.18652344 6.99755859 C27.86699478 8.66521005 32.55897214 10.29983396 37.25 11.9375 C38.94276176 12.52979525 40.63547512 13.12222886 42.328125 13.71484375 C43.53984375 14.13894531 44.7515625 14.56304687 46 15 C42.67592094 16.10802635 42.0983632 15.93700298 38.9453125 14.8203125 C38.16542969 14.55089844 37.38554688 14.28148438 36.58203125 14.00390625 C35.36580078 13.56884766 35.36580078 13.56884766 34.125 13.125 C27.18222795 10.62915046 27.18222795 10.62915046 20 9 C19.67 9.66 19.34 10.32 19 11 C12.09142011 9.09763742 5.76522894 6.32091271 0 2 C0 1.34 0 0.68 0 0 Z " fill="#8B8B8B" transform="translate(22,56)"/>
<path d="M0 0 C2.62986315 0.39537806 5.25165938 0.81501873 7.875 1.25 C8.62136719 1.35957031 9.36773437 1.46914062 10.13671875 1.58203125 C15.66252929 2.52789071 15.66252929 2.52789071 17.5078125 5.109375 C17.75144531 6.04523438 17.75144531 6.04523438 18 7 C17 8 17 8 15.26025391 8.06933594 C12.71432368 7.97461884 10.16974973 7.87305021 7.625 7.75 C6.69212158 7.70625244 5.75924316 7.66250488 4.7980957 7.61743164 C-4.58916244 7.09745621 -13.75912724 5.67919859 -23 4 C-23 3.67 -23 3.34 -23 3 C-19.97892098 2.9456749 -16.95883472 2.90617073 -13.9375 2.875 C-13.08994141 2.85824219 -12.24238281 2.84148437 -11.36914062 2.82421875 C-6.17838375 2.78413569 -1.99490518 3.43297092 3 5 C5.58930993 5.23692775 5.58930993 5.23692775 7.9375 5.125 C9.278125 5.08375 10.61875 5.0425 12 5 C6.06 3.515 6.06 3.515 0 2 C0 1.34 0 0.68 0 0 Z " fill="#1B4F6F" transform="translate(201,200)"/>
<path d="M0 0 C0 3 0 3 -1.94140625 5.26953125 C-17.07329482 19.95039483 -17.07329482 19.95039483 -23.6875 20.0625 C-24.780625 20.041875 -25.87375 20.02125 -27 20 C-26.401875 19.71125 -25.80375 19.4225 -25.1875 19.125 C-22.80672208 17.95257974 -22.80672208 17.95257974 -20 16 C-17.3125 15.875 -17.3125 15.875 -15 16 C-15 14.68 -15 13.36 -15 12 C-14.34 12 -13.68 12 -13 12 C-13 11.01 -13 10.02 -13 9 C-14.83700789 8.22757731 -14.83700789 8.22757731 -17 8 C-17.474375 8.474375 -17.94875 8.94875 -18.4375 9.4375 C-20 11 -20 11 -22.6875 11.1875 C-23.450625 11.125625 -24.21375 11.06375 -25 11 C-24.01 10.34 -23.02 9.68 -22 9 C-20.26161746 7.63667007 -18.53324006 6.26053095 -16.8125 4.875 C-15.91144531 4.15054688 -15.01039063 3.42609375 -14.08203125 2.6796875 C-13.39496094 2.12539062 -12.70789063 1.57109375 -12 1 C-12 3.33333333 -12 5.66666667 -12 8 C-11.01 8 -10.02 8 -9 8 C-8.67 7.01 -8.34 6.02 -8 5 C-7.67 5.66 -7.34 6.32 -7 7 C-4.69 4.69 -2.38 2.38 0 0 Z " fill="#0E6A97" transform="translate(409,183)"/>
<path d="M0 0 C0.3125 2.8125 0.3125 2.8125 0 6 C-2.125 7.5625 -2.125 7.5625 -5 9 C-5.99259084 9.90211339 -6.97139256 10.81957991 -7.9375 11.75 C-11 14 -11 14 -14.375 13.8125 C-15.24125 13.544375 -16.1075 13.27625 -17 13 C-14.91336044 8.67767519 -13.39678284 6.06907428 -9 4 C-8.319375 3.484375 -7.63875 2.96875 -6.9375 2.4375 C-4.6640156 0.75072125 -2.85172001 0 0 0 Z " fill="#279ADB" transform="translate(412,177)"/>
<path d="M0 0 C5.58898511 1.09053368 7.75731582 3.75352429 11.1875 7.95703125 C13.80027638 10.90203566 16.71318112 12.85350604 20 15 C19.01 15 18.02 15 17 15 C16.34 16.32 15.68 17.64 15 19 C13.29115995 17.37660195 11.62553283 15.70680947 10 14 C10 13.34 10 12.68 10 12 C9.38125 11.773125 8.7625 11.54625 8.125 11.3125 C5.38589791 9.62070165 4.94975528 8.00755839 4 5 C2.68 5 1.36 5 0 5 C0 3.35 0 1.7 0 0 Z " fill="#229BD8" transform="translate(139,168)"/>
<path d="M0 0 C-0.33 0.99 -0.66 1.98 -1 3 C-8.69282367 6.17377954 -16.80479414 6.39232368 -25 6 C-19.16649978 -0.85052493 -8.26233478 -0.43149524 0 0 Z " fill="#0DA3F2" transform="translate(386,197)"/>
<path d="M0 0 C0.33 0 0.66 0 1 0 C1.38177292 8.00309164 0.72181794 15.53322862 -0.71533203 23.38964844 C-2.70579911 34.51298375 -3.78262827 45.77095274 -5 57 C-5.33 57 -5.66 57 -6 57 C-6.17535637 48.7025817 -5.70303734 40.67027232 -4.6875 32.4375 C-4.55432373 31.31939941 -4.42114746 30.20129883 -4.28393555 29.04931641 C-3.09919771 19.3257212 -1.64040428 9.65628053 0 0 Z " fill="#3A3A3A" transform="translate(440,147)"/>
<path d="M0 0 C0 0.66 0 1.32 0 2 C-1.7664657 3.0076952 -3.53833823 4.00591714 -5.3125 5 C-6.79169922 5.8353125 -6.79169922 5.8353125 -8.30078125 6.6875 C-11 8 -11 8 -14 8 C-14 7.34 -14 6.68 -14 6 C-14.65597168 6.2172876 -15.31194336 6.4345752 -15.98779297 6.65844727 C-18.9477237 7.63415923 -21.91124996 8.59845491 -24.875 9.5625 C-25.90753906 9.90474609 -26.94007813 10.24699219 -28.00390625 10.59960938 C-28.99003906 10.91865234 -29.97617187 11.23769531 -30.9921875 11.56640625 C-31.90339355 11.86490479 -32.81459961 12.16340332 -33.75341797 12.47094727 C-36 13 -36 13 -38 12 C-18.98157389 3.73253985 -18.98157389 3.73253985 -11 4 C-10.67 3.34 -10.34 2.68 -10 2 C-6.54956883 0.84985628 -3.64717645 0 0 0 Z " fill="#5B5B5B" transform="translate(526,59)"/>
<path d="M0 0 C0.66 0.33 1.32 0.66 2 1 C2.33 1.99 2.66 2.98 3 4 C9.32126362 4.83488387 15.64780958 5.45118943 22 6 C22 6.33 22 6.66 22 7 C17.38 7.33 12.76 7.66 8 8 C8 8.66 8 9.32 8 10 C5.36 9.67 2.72 9.34 0 9 C0 8.01 0 7.02 0 6 C-0.66 6 -1.32 6 -2 6 C-2.33 4.35 -2.66 2.7 -3 1 C-2.01 0.67 -1.02 0.34 0 0 Z " fill="#189BE8" transform="translate(174,193)"/>
<path d="M0 0 C6.92307692 2 6.92307692 2 9 5 C9 6.32 9 7.64 9 9 C9.66 9 10.32 9 11 9 C10.67 10.32 10.34 11.64 10 13 C8.7260098 12.23439544 7.45593488 11.46227374 6.1875 10.6875 C5.47980469 10.25824219 4.77210938 9.82898438 4.04296875 9.38671875 C2.07667329 8.05204401 0.49885157 6.84474039 -1 5 C-0.6875 2.3125 -0.6875 2.3125 0 0 Z " fill="#2299DC" transform="translate(158,185)"/>
<path d="M0 0 C0.66 0.33 1.32 0.66 2 1 C1.01 2.485 1.01 2.485 0 4 C1.32 4 2.64 4 4 4 C4 4.66 4 5.32 4 6 C2.71086513 6.67154933 1.41859796 7.33708859 0.125 8 C-0.59429687 8.37125 -1.31359375 8.7425 -2.0546875 9.125 C-4 10 -4 10 -6 10 C-6.33 10.66 -6.66 11.32 -7 12 C-9.5625 12.625 -9.5625 12.625 -12 13 C-12 12.01 -12 11.02 -12 10 C-9.62890625 7.7734375 -9.62890625 7.7734375 -6.5625 5.375 C-5.55316406 4.57835937 -4.54382813 3.78171875 -3.50390625 2.9609375 C-2.67761719 2.31382812 -1.85132813 1.66671875 -1 1 C-0.67 0.67 -0.34 0.34 0 0 Z " fill="#A7A7A7" transform="translate(329,319)"/>
<path d="M0 0 C0.33 1.65 0.66 3.3 1 5 C-2.45922629 7.95051654 -5.7838704 10.25855517 -10 12 C-10.99 11.67 -11.98 11.34 -13 11 C-10.36 9.68 -7.72 8.36 -5 7 C-6.9254644 4.7763932 -6.9254644 4.7763932 -10 4 C-10 3.01 -10 2.02 -10 1 C-3.71428571 -1.42857143 -3.71428571 -1.42857143 0 0 Z " fill="#CDCDCD" transform="translate(474,79)"/>
<path d="M0 0 C0.99 0.495 0.99 0.495 2 1 C2 2.32 2 3.64 2 5 C2.99 5 3.98 5 5 5 C7.03435531 8.72965139 8 10.66905042 8 15 C7.01 15.33 6.02 15.66 5 16 C4.34 16.99 3.68 17.98 3 19 C2.49521515 16.58424393 1.99602358 14.16755639 1.5 11.75 C1.35691406 11.06808594 1.21382812 10.38617188 1.06640625 9.68359375 C0.38748951 6.35366879 0 3.41667449 0 0 Z " fill="#9F9F9F" transform="translate(226,153)"/>
<path d="M0 0 C5.91294642 -0.31747363 10.78904033 0.81593064 16.4375 2.5 C17.26443359 2.73847656 18.09136719 2.97695312 18.94335938 3.22265625 C20.96464552 3.806843 22.98267605 4.40227439 25 5 C21.7107732 5.90097916 19.21910607 5.98876457 15.8125 5.625 C14.8534375 5.52574219 13.894375 5.42648438 12.90625 5.32421875 C11.46765625 5.16373047 11.46765625 5.16373047 10 5 C9.1028125 4.90332031 8.205625 4.80664062 7.28125 4.70703125 C5.18672363 4.47835669 3.0932351 4.24020731 1 4 C0.67 2.68 0.34 1.36 0 0 Z " fill="#1788BF" transform="translate(175,194)"/>
<path d="M0 0 C0.99 0 1.98 0 3 0 C4.85710087 8.65479083 6.46588214 17.14101063 7 26 C6.34 26 5.68 26 5 26 C4.34 21.05 3.68 16.1 3 11 C2.67 13.31 2.34 15.62 2 18 C1.34 18 0.68 18 0 18 C0 12.06 0 6.12 0 0 Z " fill="#565656" transform="translate(105,120)"/>
<path d="M0 0 C0 0.66 0 1.32 0 2 C-2.03460769 3.01428514 -4.07804606 4.01086789 -6.125 5 C-7.83042969 5.8353125 -7.83042969 5.8353125 -9.5703125 6.6875 C-13.01319533 8.00504969 -15.35669762 8.26577282 -19 8 C-18.67 7.01 -18.34 6.02 -18 5 C-15.71408975 3.95019646 -13.56082866 3.10201938 -11.1875 2.3125 C-9.94355469 1.87550781 -8.69960938 1.43851562 -7.41796875 0.98828125 C-4 0 -4 0 0 0 Z " fill="#EEEEEE" transform="translate(512,65)"/>
<path d="M0 0 C0.66 0.33 1.32 0.66 2 1 C-2.32399551 4.67780222 -6.65723734 8.34437581 -11 12 C-11.54350098 12.45810059 -12.08700195 12.91620117 -12.64697266 13.38818359 C-14.1353217 14.63895579 -15.63000806 15.88217537 -17.125 17.125 C-17.99382812 17.84945313 -18.86265625 18.57390625 -19.7578125 19.3203125 C-22 21 -22 21 -25 22 C-23.65321731 18.85750707 -22.36289413 17.2512344 -19.5625 15.3125 C-15.05123039 12.0795609 -10.79130434 8.58737887 -6.515625 5.05078125 C-4.37993051 3.30972596 -2.21875059 1.63295896 0 0 Z " fill="#515151" transform="translate(356,297)"/>
<path d="M0 0 C0.33 0.99 0.66 1.98 1 3 C-0.8125 5.6875 -0.8125 5.6875 -3 8 C-3.66 8 -4.32 8 -5 8 C-4.67 6.35 -4.34 4.7 -4 3 C-5.27450447 3.59638333 -6.54446877 4.20247416 -7.8125 4.8125 C-8.52019531 5.14894531 -9.22789062 5.48539063 -9.95703125 5.83203125 C-12.01129035 7.00645471 -13.41616278 8.25628016 -15 10 C-15.66 9.67 -16.32 9.34 -17 9 C-11.94482356 3.65595634 -7.52744228 0 0 0 Z " fill="#21759C" transform="translate(416,174)"/>
<path d="M0 0 C0.99 0 1.98 0 3 0 C3 4.95 3 9.9 3 15 C1 14 1 14 0.11328125 11.8203125 C-0.15097656 10.93085938 -0.41523438 10.04140625 -0.6875 9.125 C-1.09548828 7.79855469 -1.09548828 7.79855469 -1.51171875 6.4453125 C-2 4 -2 4 -1 1 C-0.67 0.67 -0.34 0.34 0 0 Z " fill="#B0B0B0" transform="translate(262,290)"/>
<path d="M0 0 C2.97 1.65 5.94 3.3 9 5 C9 5.66 9 6.32 9 7 C9.55429688 7.24878906 10.10859375 7.49757813 10.6796875 7.75390625 C13.41991242 9.22550852 15.69844052 10.99263069 18.125 12.9375 C18.99382812 13.62714844 19.86265625 14.31679688 20.7578125 15.02734375 C23 17 23 17 25 20 C22.08764624 18.65463011 19.7460541 17.11892027 17.28515625 15.06640625 C16.59873047 14.49986328 15.91230469 13.93332031 15.20507812 13.34960938 C14.49802734 12.75986328 13.79097656 12.17011719 13.0625 11.5625 C7.74642422 7.08848321 7.74642422 7.08848321 1.99609375 3.21484375 C1.33738281 2.81394531 0.67867187 2.41304688 0 2 C0 1.34 0 0.68 0 0 Z " fill="#5F5F5F" transform="translate(189,293)"/>
<path d="M0 0 C0.66 0 1.32 0 2 0 C3.31639913 5.06307358 4.5267241 10.14897564 5.6875 15.25 C5.95949219 16.43078125 6.23148438 17.6115625 6.51171875 18.828125 C6.95731838 21.72274017 6.9964681 23.29816703 6 26 C3.48685843 23.48685843 3.47923115 22.03513062 2.9296875 18.5546875 C2.66865234 16.94013672 2.66865234 16.94013672 2.40234375 15.29296875 C2.22832031 14.16503906 2.05429688 13.03710938 1.875 11.875 C1.69324219 10.73933594 1.51148438 9.60367188 1.32421875 8.43359375 C0.87554285 5.62346575 0.43446972 2.81235351 0 0 Z " fill="#4D4D4D" transform="translate(230,180)"/>
<path d="M0 0 C0.33 0 0.66 0 1 0 C0.67 8.91 0.34 17.82 0 27 C-0.33 27 -0.66 27 -1 27 C-1.22561734 23.06328959 -1.42752827 19.12571465 -1.625 15.1875 C-1.72167969 13.50817383 -1.72167969 13.50817383 -1.8203125 11.79492188 C-1.871875 10.72177734 -1.9234375 9.64863281 -1.9765625 8.54296875 C-2.02893066 7.55321045 -2.08129883 6.56345215 -2.13525391 5.54370117 C-2 3 -2 3 0 0 Z " fill="#7B7B7B" transform="translate(446,188)"/>
<path d="M0 0 C4.95696581 1.23924145 7.11658466 2.78577758 10 7 C9.01 7 8.02 7 7 7 C6.67 7.99 6.34 8.98 6 10 C5.34 8.35 4.68 6.7 4 5 C2.68 5 1.36 5 0 5 C0 3.35 0 1.7 0 0 Z " fill="#357A96" transform="translate(139,168)"/>
<path d="M0 0 C-2.25 2.5 -2.25 2.5 -5 5 C-8.66666667 5 -12.33333333 5 -16 5 C-13.77976074 2.77976074 -12.01470899 2.00011037 -9.125 0.8125 C-8.26132812 0.44769531 -7.39765625 0.08289063 -6.5078125 -0.29296875 C-3.83456944 -1.04664008 -2.57147011 -0.9388856 0 0 Z " fill="#B3B3B3" transform="translate(444,87)"/>
<path d="M0 0 C-5.30040763 2.9733994 -9.94260614 4 -16 4 C-15.67 3.01 -15.34 2.02 -15 1 C-12.77888677 -0.11055662 -11.0853776 -0.33890958 -8.625 -0.625 C-7.85414063 -0.72039062 -7.08328125 -0.81578125 -6.2890625 -0.9140625 C-3.97179747 -1.0010588 -2.20658162 -0.67507292 0 0 Z " fill="#2C87B3" transform="translate(358,203)"/>
<path d="M0 0 C0.33 0 0.66 0 1 0 C1.22428282 7.94957992 0.95403042 15.27111181 -1 23 C-1.33 23 -1.66 23 -2 23 C-2.22428282 15.05042008 -1.95403042 7.72888819 0 0 Z " fill="#767676" transform="translate(440,147)"/>
<path d="M0 0 C3.08325358 -0.0582253 6.16636505 -0.09367134 9.25 -0.125 C10.55904297 -0.15013672 10.55904297 -0.15013672 11.89453125 -0.17578125 C12.73886719 -0.18222656 13.58320313 -0.18867188 14.453125 -0.1953125 C15.22817383 -0.20578613 16.00322266 -0.21625977 16.80175781 -0.22705078 C19.25883539 0.02673444 20.87311542 0.77555848 23 2 C15.01097813 3.3345093 7.92190247 2.50242978 0 1 C0 0.67 0 0.34 0 0 Z " fill="#1871A1" transform="translate(178,203)"/>
<path d="M0 0 C7.02573607 0.65355684 16.4694241 1.95086627 21.890625 6.6328125 C22.25671875 7.08398438 22.6228125 7.53515625 23 8 C21.35 8 19.7 8 18 8 C18 7.34 18 6.68 18 6 C17.071875 5.9175 16.14375 5.835 15.1875 5.75 C9.87465502 5.01757075 4.97221202 2.93313849 0 1 C0 0.67 0 0.34 0 0 Z " fill="#626262" transform="translate(236,129)"/>
<path d="M0 0 C0.66 0.33 1.32 0.66 2 1 C1.01 2.32 0.02 3.64 -1 5 C-0.01 5.33 0.98 5.66 2 6 C1.360625 6.12375 0.72125 6.2475 0.0625 6.375 C-0.9584375 6.684375 -0.9584375 6.684375 -2 7 C-2.33 7.66 -2.66 8.32 -3 9 C-5.5625 9.625 -5.5625 9.625 -8 10 C-8 7 -8 7 -6.25 5.17578125 C-5.5075 4.56089844 -4.765 3.94601562 -4 3.3125 C-3.2575 2.68988281 -2.515 2.06726563 -1.75 1.42578125 C-1.1725 0.95527344 -0.595 0.48476563 0 0 Z " fill="#626262" transform="translate(325,322)"/>
<path d="M0 0 C2 1 2 1 2.78125 3.1796875 C3.0184375 4.06914062 3.255625 4.95859375 3.5 5.875 C4.37982318 9.15521035 5.08541088 11.12811631 7 14 C7.125 17.1875 7.125 17.1875 7 20 C4.18531401 16.71754385 3.03708147 13.56166518 1.8125 9.4375 C1.46832031 8.30183594 1.12414062 7.16617187 0.76953125 5.99609375 C0 3 0 3 0 0 Z " fill="#595959" transform="translate(259,293)"/>
<path d="M0 0 C5.17152008 0.4082779 9.00424 2.36596112 13.51953125 4.72265625 C16.62060161 6.3195854 19.77740657 7.6689288 23 9 C19.00533756 10.33155415 16.81823134 8.90759043 13.1875 7.25 C11.98480469 6.71890625 10.78210938 6.1878125 9.54296875 5.640625 C6.32899842 4.15234767 3.15698224 2.60508132 0 1 C0 0.67 0 0.34 0 0 Z " fill="#616161" transform="translate(139,112)"/>
<path d="M0 0 C0 0.66 0 1.32 0 2 C-8.261959 6.59225513 -8.261959 6.59225513 -13 6 C-13 5.34 -13 4.68 -13 4 C-12.34 4 -11.68 4 -11 4 C-10.67 3.34 -10.34 2.68 -10 2 C-6.54956883 0.84985628 -3.64717645 0 0 0 Z " fill="#7D7D7D" transform="translate(526,59)"/>
<path d="M0 0 C4.42323682 0.58265272 7.5155864 2.26766211 11.3125 4.5625 C12.38113281 5.20316406 13.44976562 5.84382813 14.55078125 6.50390625 C15.35902344 6.99761719 16.16726563 7.49132812 17 8 C15.02 8.99 15.02 8.99 13 10 C12.154375 9.2575 11.30875 8.515 10.4375 7.75 C7.17280734 5.01513813 3.74256322 3.02098414 0 1 C0 0.67 0 0.34 0 0 Z " fill="#818181" transform="translate(330,378)"/>
<path d="M0 0 C1.65 0.33 3.3 0.66 5 1 C4.3125 3.875 4.3125 3.875 3 7 C0.375 8.375 0.375 8.375 -2 9 C-1.51421457 5.87709365 -1.0013988 3.00419641 0 0 Z " fill="#F2F2F2" transform="translate(349,306)"/>
<path d="M0 0 C-13.44874715 5.55580866 -13.44874715 5.55580866 -21 6 C-18.29517875 3.29517875 -15.17456319 2.4923264 -11.625 1.3125 C-10.95210938 1.07466797 -10.27921875 0.83683594 -9.5859375 0.59179688 C-3.46053366 -1.46407193 -3.46053366 -1.46407193 0 0 Z " fill="#494949" transform="translate(401,102)"/>
<path d="M0 0 C0.66 0.33 1.32 0.66 2 1 C0.92807816 2.3218362 -0.15802695 3.63217927 -1.25 4.9375 C-1.85328125 5.66839844 -2.4565625 6.39929688 -3.078125 7.15234375 C-5.12457846 9.11976751 -6.20232377 9.72832483 -9 10 C-9.66 9.67 -10.32 9.34 -11 9 C-11 8.34 -11 7.68 -11 7 C-10.37351562 6.66226562 -9.74703125 6.32453125 -9.1015625 5.9765625 C-8.28429687 5.53054688 -7.46703125 5.08453125 -6.625 4.625 C-5.40683594 3.96371094 -5.40683594 3.96371094 -4.1640625 3.2890625 C-1.89185698 2.0556107 -1.89185698 2.0556107 0 0 Z " fill="#838383" transform="translate(417,253)"/>
<path d="M0 0 C1.29683623 3.89050869 0.41347964 5.68528522 -0.8125 9.5625 C-1.16957031 10.71878906 -1.52664063 11.87507812 -1.89453125 13.06640625 C-3 16 -3 16 -5 18 C-5 15.03 -5 12.06 -5 9 C-4.34 8.67 -3.68 8.34 -3 8 C-2.09656316 6.11736119 -2.09656316 6.11736119 -1.375 3.9375 C-1.11460937 3.20402344 -0.85421875 2.47054687 -0.5859375 1.71484375 C-0.39257812 1.14894531 -0.19921875 0.58304688 0 0 Z " fill="#454545" transform="translate(309,238)"/>
<path d="M0 0 C0 1.98 0 3.96 0 6 C-1.32 6.33 -2.64 6.66 -4 7 C-4 6.01 -4 5.02 -4 4 C-5.32 3.67 -6.64 3.34 -8 3 C-2.25 0 -2.25 0 0 0 Z " fill="#299CD1" transform="translate(412,177)"/>
<path d="M0 0 C4.30764815 1.56641751 8.06171464 3.68336156 12 6 C8.29218328 7.23593891 7.32489747 6.5678132 3.8125 5.0625 C2.91144531 4.68222656 2.01039063 4.30195313 1.08203125 3.91015625 C0.39496094 3.60980469 -0.29210937 3.30945313 -1 3 C-0.67 2.01 -0.34 1.02 0 0 Z " fill="#555555" transform="translate(180,301)"/>
<path d="M0 0 C-5.61908739 3.14668894 -10.66783477 4.54443054 -17 3 C-12.97579254 -1.02420746 -5.45329719 -0.11361036 0 0 Z " fill="#2699D3" transform="translate(390,200)"/>
<path d="M0 0 C1.98 0.495 1.98 0.495 4 1 C4 1.99 4 2.98 4 4 C4.66 4 5.32 4 6 4 C5.67 5.32 5.34 6.64 5 8 C0.125 5.375 0.125 5.375 -1 2 C-0.67 1.34 -0.34 0.68 0 0 Z " fill="#0EA8F6" transform="translate(163,190)"/>
<path d="M0 0 C7.625 0.875 7.625 0.875 11 2 C9.04578965 2.86355778 7.08648653 3.71559934 5.125 4.5625 C4.03445313 5.03816406 2.94390625 5.51382813 1.8203125 6.00390625 C0.88960938 6.33261719 -0.04109375 6.66132813 -1 7 C-1.66 6.67 -2.32 6.34 -3 6 C-1.68 5.01 -0.36 4.02 1 3 C0.67 2.01 0.34 1.02 0 0 Z " fill="#868686" transform="translate(368,126)"/>
<path d="M0 0 C0 0.66 0 1.32 0 2 C-3.22791555 4.1519437 -4.28400809 4.20086443 -8 4 C-5.97675095 -0.48005146 -4.79569304 -1.43870791 0 0 Z " fill="#F4F4F4" transform="translate(337,319)"/>
<path d="M0 0 C0.33 0 0.66 0 1 0 C1.36983155 6.53369066 1.36983155 6.53369066 -0.4375 8.8125 C-0.953125 9.204375 -1.46875 9.59625 -2 10 C-2.33 10.66 -2.66 11.32 -3 12 C-3.66 12 -4.32 12 -5 12 C-3.68938409 7.76570244 -2.05643741 3.92592596 0 0 Z " fill="#989898" transform="translate(324,152)"/>
<path d="M0 0 C0.99 0.33 1.98 0.66 3 1 C2.34 3.31 1.68 5.62 1 8 C0.01 7.67 -0.98 7.34 -2 7 C-1.125 1.125 -1.125 1.125 0 0 Z " fill="#D7D7D7" transform="translate(117,252)"/>
<path d="M0 0 C4.98012761 1.50912958 8.24259942 4.55661849 12 8 C8.21516391 8 7.22592069 6.89417485 4.3125 4.5625 C3.50425781 3.92441406 2.69601563 3.28632813 1.86328125 2.62890625 C1.24839844 2.09136719 0.63351563 1.55382812 0 1 C0 0.67 0 0.34 0 0 Z " fill="#095F80" transform="translate(149,175)"/>
<path d="M0 0 C0.99 0.495 0.99 0.495 2 1 C2 2.32 2 3.64 2 5 C2.66 5 3.32 5 4 5 C3.67 8.3 3.34 11.6 3 15 C2.67 15 2.34 15 2 15 C1.66223316 13.2508503 1.32996329 11.50063855 1 9.75 C0.814375 8.77546875 0.62875 7.8009375 0.4375 6.796875 C0 4 0 4 0 0 Z " fill="#646464" transform="translate(226,153)"/>
<path d="M0 0 C0.33 0 0.66 0 1 0 C1 2.64 1 5.28 1 8 C0.34 8 -0.32 8 -1 8 C-1.33 9.65 -1.66 11.3 -2 13 C-3.6415049 9.7169902 -2.51888624 6.57454967 -2 3 C-1.34 3 -0.68 3 0 3 C0 2.01 0 1.02 0 0 Z " fill="#8F8F8F" transform="translate(444,126)"/>
<path d="M0 0 C5.15464734 0.48324819 8.81550319 3.18610761 13 6 C11.02 6.99 11.02 6.99 9 8 C8.443125 7.4225 7.88625 6.845 7.3125 6.25 C4.98866639 3.9889727 2.55774076 1.98935393 0 0 Z " fill="#747474" transform="translate(297,360)"/>
<path d="M0 0 C4.55671592 1.51890531 8.31723292 3.95402262 12 7 C12 7.33 12 7.66 12 8 C9.8125 8.3125 9.8125 8.3125 7 8 C4.12425455 5.52552136 2.10382653 3.1557398 0 0 Z " fill="#6D6D6D" transform="translate(215,314)"/>
<path d="M0 0 C1.59373901 2.39060851 2.65297076 4.30828179 3.6875 6.9375 C3.95949219 7.60652344 4.23148437 8.27554687 4.51171875 8.96484375 C5.0787676 11.32830338 4.76024003 12.7192799 4 15 C1.54510684 9.87674471 0.49658297 5.66104589 0 0 Z " fill="#474747" transform="translate(266,314)"/>
<path d="M0 0 C1.32 0.33 2.64 0.66 4 1 C3.67 1.99 3.34 2.98 3 4 C3.66 4 4.32 4 5 4 C5 4.66 5 5.32 5 6 C4.01 6 3.02 6 2 6 C1.67 6.66 1.34 7.32 1 8 C0.67 5.36 0.34 2.72 0 0 Z " fill="#F7F7F7" transform="translate(377,283)"/>
<path d="M0 0 C5.19209404 -0.21192221 9.126739 0.4087311 14 2 C14 2.33 14 2.66 14 3 C12.41753293 3.08153933 10.83383727 3.13943557 9.25 3.1875 C8.36828125 3.22230469 7.4865625 3.25710937 6.578125 3.29296875 C3.55328417 2.94923684 2.24416398 1.99772541 0 0 Z " fill="#0C6E92" transform="translate(175,194)"/>
<path d="M0 0 C0.66 0.33 1.32 0.66 2 1 C1.67 1.99 1.34 2.98 1 4 C-0.92578125 4.765625 -0.92578125 4.765625 -3.3125 5.25 C-4.48232422 5.50523437 -4.48232422 5.50523437 -5.67578125 5.765625 C-8.07651867 6.00771617 -9.71809588 5.7310448 -12 5 C-11.07767578 4.83564453 -11.07767578 4.83564453 -10.13671875 4.66796875 C-9.32847656 4.50941406 -8.52023437 4.35085937 -7.6875 4.1875 C-6.88699219 4.03667969 -6.08648437 3.88585937 -5.26171875 3.73046875 C-2.76554413 2.92427764 -1.67577894 1.97947998 0 0 Z " fill="#2992D4" transform="translate(392,190)"/>
<path d="M0 0 C0 0.99 0 1.98 0 3 C-0.99 3.33 -1.98 3.66 -3 4 C-3.33 4.99 -3.66 5.98 -4 7 C-4.99 7 -5.98 7 -7 7 C-6.61402985 4.20171644 -6.19863427 3.1794116 -4.0625 1.25 C-2 0 -2 0 0 0 Z " fill="#0EA9F1" transform="translate(404,184)"/>
<path d="M0 0 C5.77378925 0.4811491 9.95859836 2.18467181 15 5 C11.01508155 6.32830615 9.59951452 5.23204404 5.8125 3.5625 C4.72582031 3.08941406 3.63914063 2.61632812 2.51953125 2.12890625 C1.68808594 1.75636719 0.85664063 1.38382813 0 1 C0 0.67 0 0.34 0 0 Z " fill="#4A4A4A" transform="translate(188,133)"/>
<path d="M0 0 C2.88575819 0.39803561 3.82189513 0.79009069 5.75 3.0625 C6.1625 3.701875 6.575 4.34125 7 5 C6.01 5.99 5.02 6.98 4 8 C2.9375 6.125 2.9375 6.125 2 4 C2.33 3.34 2.66 2.68 3 2 C2.01 1.67 1.02 1.34 0 1 C0 0.67 0 0.34 0 0 Z " fill="#989898" transform="translate(179,286)"/>
<path d="M0 0 C1.875 0.3125 1.875 0.3125 4 1 C4.66 1.99 5.32 2.98 6 4 C5.34 4 4.68 4 4 4 C3.67 4.66 3.34 5.32 3 6 C2.01 5.34 1.02 4.68 0 4 C0 2.68 0 1.36 0 0 Z " fill="#2D95D8" transform="translate(146,175)"/>
<path d="M0 0 C0.33 0.99 0.66 1.98 1 3 C3.01508358 3.73323796 3.01508358 3.73323796 5 4 C4.34 4 3.68 4 3 4 C2.67 5.32 2.34 6.64 2 8 C1.67 7.34 1.34 6.68 1 6 C0.01 6 -0.98 6 -2 6 C-1.34 4.02 -0.68 2.04 0 0 Z " fill="#939393" transform="translate(314,173)"/>
<path d="M0 0 C0 3.20395416 -0.74335022 5.09399739 -2 8 C-2.33 7.34 -2.66 6.68 -3 6 C-4.32 6.33 -5.64 6.66 -7 7 C-5.625 5 -5.625 5 -4 3 C-3.34 3 -2.68 3 -2 3 C-2 2.34 -2 1.68 -2 1 C-1.34 0.67 -0.68 0.34 0 0 Z " fill="#808080" transform="translate(369,287)"/>
<path d="M0 0 C-2 3 -2 3 -5 4 C-7.33299825 4.03954234 -9.66708189 4.04401732 -12 4 C-11.1028125 3.566875 -11.1028125 3.566875 -10.1875 3.125 C-3.7201087 -0.20108696 -3.7201087 -0.20108696 0 0 Z " fill="#0C6587" transform="translate(394,199)"/>
<path d="M0 0 C0.66 0.33 1.32 0.66 2 1 C1.67 1.66 1.34 2.32 1 3 C1.99 3.66 2.98 4.32 4 5 C2.02 5.66 0.04 6.32 -2 7 C-2 5.02 -2 3.04 -2 1 C-1.34 0.67 -0.68 0.34 0 0 Z " fill="#B8B8B8" transform="translate(340,137)"/>
<path d="M0 0 C0.66 0.33 1.32 0.66 2 1 C0.8803014 2.00593243 -0.2459412 3.0045849 -1.375 4 C-2.00148438 4.556875 -2.62796875 5.11375 -3.2734375 5.6875 C-5 7 -5 7 -7 7 C-5.55609075 3.19333016 -3.65047197 1.73397418 0 0 Z " fill="#767676" transform="translate(338,312)"/>
<path d="M0 0 C2.64 0.66 5.28 1.32 8 2 C8 2.33 8 2.66 8 3 C4.04 3 0.08 3 -4 3 C-2.68 2.67 -1.36 2.34 0 2 C0 1.34 0 0.68 0 0 Z " fill="#398AC2" transform="translate(208,203)"/>
<path d="M0 0 C0.66 0.33 1.32 0.66 2 1 C0.515 4.465 0.515 4.465 -1 8 C-1.66 7.67 -2.32 7.34 -3 7 C-2.25 2.25 -2.25 2.25 0 0 Z " fill="#B7B7B7" transform="translate(360,294)"/>
<path d="M0 0 C1.65 0 3.3 0 5 0 C5.33 0.99 5.66 1.98 6 3 C3.69 3 1.38 3 -1 3 C-0.67 2.01 -0.34 1.02 0 0 Z " fill="#269DE4" transform="translate(202,202)"/>
<path d="M0 0 C4.05606165 0.46800711 7.46588679 0.87953208 11 3 C3.49230769 3.36923077 3.49230769 3.36923077 1 1.5 C0.67 1.005 0.34 0.51 0 0 Z " fill="#0A5474" transform="translate(167,200)"/>
<path d="M0 0 C5.75 -0.125 5.75 -0.125 8 1 C8 1.66 8 2.32 8 3 C6.02 3 4.04 3 2 3 C2 2.34 2 1.68 2 1 C1.34 0.67 0.68 0.34 0 0 Z " fill="#15A3F9" transform="translate(180,200)"/>
<path d="M0 0 C0.66 0.33 1.32 0.66 2 1 C2.33 1.99 2.66 2.98 3 4 C1.35 4.33 -0.3 4.66 -2 5 C-2.33 3.68 -2.66 2.36 -3 1 C-2.01 0.67 -1.02 0.34 0 0 Z " fill="#17ACEE" transform="translate(174,193)"/>
<path d="M0 0 C1.98 0.495 1.98 0.495 4 1 C3.67 2.65 3.34 4.3 3 6 C1.68 5.01 0.36 4.02 -1 3 C-0.67 2.01 -0.34 1.02 0 0 Z " fill="#14A4F8" transform="translate(158,185)"/>
<path d="M0 0 C-1.33332095 3.99996286 -3.4957827 4.83782337 -7 7 C-7.66 6.67 -8.32 6.34 -9 6 C-7.8803014 4.99406757 -6.7540588 3.9954151 -5.625 3 C-4.68527344 2.1646875 -4.68527344 2.1646875 -3.7265625 1.3125 C-2 0 -2 0 0 0 Z " fill="#093B5A" transform="translate(418,169)"/>
<path d="M0 0 C-2.90092502 1.93395001 -3.89674737 2.30131941 -7.1875 2.625 C-8.445625 2.74875 -9.70375 2.8725 -11 3 C-7.68381684 -0.31618316 -4.50821267 -1.6697084 0 0 Z " fill="#393939" transform="translate(444,87)"/>
<path d="M0 0 C2.31 0.66 4.62 1.32 7 2 C6.01 3.485 6.01 3.485 5 5 C2.525 4.01 2.525 4.01 0 3 C0 2.01 0 1.02 0 0 Z " fill="#F4F4F4" transform="translate(41,64)"/>
<path d="M0 0 C5.75 0.75 5.75 0.75 8 3 C5.6875 3.625 5.6875 3.625 3 4 C2.01 3.34 1.02 2.68 0 2 C0 1.34 0 0.68 0 0 Z " fill="#515151" transform="translate(22,56)"/>
<path d="M0 0 C0.99 0.33 1.98 0.66 3 1 C2.34 2.32 1.68 3.64 1 5 C0.01 4.67 -0.98 4.34 -2 4 C-2 3.01 -2 2.02 -2 1 C-1.34 0.67 -0.68 0.34 0 0 Z " fill="#6B8B95" transform="translate(420,167)"/>
<path d="M0 0 C3 3.75 3 3.75 3 6 C1.68 6.33 0.36 6.66 -1 7 C-0.67 4.69 -0.34 2.38 0 0 Z " fill="#B8B8B8" transform="translate(230,158)"/>
</svg>
