<?xml version="1.0" encoding="UTF-8"?>
<svg version="1.1" xmlns="http://www.w3.org/2000/svg" width="613" height="501">
<path d="M0 0 C202.29 0 404.58 0 613 0 C613 165.33 613 330.66 613 501 C410.71 501 208.42 501 0 501 C0 335.67 0 170.34 0 0 Z " fill="#000000" transform="translate(0,0)"/>
<path d="M0 0 C1.53333603 2.94942348 2.37787219 5.3532666 2.859375 8.65234375 C3.00246094 9.62856689 3.14554688 10.60479004 3.29296875 11.6105957 C3.44378906 12.70847412 3.59460938 13.80635254 3.75 14.9375 C3.99943359 16.72063599 3.99943359 16.72063599 4.25390625 18.53979492 C7.13659601 39.56731639 9.34452199 60.68999932 11.64855957 81.7868042 C11.98349918 84.84913412 12.32100992 87.91116987 12.65917969 90.97314453 C13.15300017 95.45480883 13.63739244 99.93738674 14.11328125 104.42098999 C14.28429128 106.02446823 14.45769111 107.62769389 14.63378906 109.23062134 C15.72473817 119.20358076 16.21402296 128.96287218 16 139 C16.70092773 139.2489502 17.40185547 139.49790039 18.12402344 139.75439453 C21.38304475 141.16589935 24.08207777 142.92681109 27.015625 144.9296875 C27.58410156 145.31608902 28.15257812 145.70249054 28.73828125 146.1006012 C30.57893043 147.35382014 32.41462044 148.61407885 34.25 149.875 C35.52296003 150.74509539 36.79607288 151.61496724 38.06933594 152.48461914 C52.26653699 162.19489183 66.27700207 172.09715931 79.98974609 182.48242188 C82.05660636 184.0427332 84.13063218 185.5930341 86.20703125 187.140625 C94.94884519 193.65776851 103.59890409 200.23689499 111.89453125 207.3203125 C120.5407767 214.65431325 128.94053846 220.75930922 139 226 C140.731755 226.94556476 142.46209154 227.89372961 144.19140625 228.84375 C150.89672554 232.5090811 157.68546367 236.00831846 164.48242188 239.5 C170.03782436 242.37697175 175.43133917 245.41844556 180.77319336 248.67382812 C183.60943453 250.36294796 186.52452827 251.82237468 189.5 253.25 C195.61161905 256.23930568 201.55046227 259.48616277 207.48242188 262.81542969 C214.28011506 266.62179827 221.13437369 270.31780715 228 274 C235.96806198 278.27536468 243.90515675 282.59453103 251.79052734 287.02026367 C256.66038492 289.73769496 261.56759599 292.37965098 266.4921875 294.99609375 C267.15851196 295.35024353 267.82483643 295.70439331 268.51135254 296.0692749 C271.85369524 297.8444249 275.19830803 299.61513815 278.54589844 301.38037109 C284.83678971 304.70685248 291.08458945 308.02907579 297 312 C297 312.33 297 312.66 297 313 C264.33972572 314.82367998 231.67968573 316.56412852 199 318 C197.05223663 318.08571259 197.05223663 318.08571259 195.06512451 318.17315674 C179.38697473 318.8628564 163.70859864 319.54739464 148.02993202 320.22524643 C145.94052425 320.31576753 143.85114307 320.40688432 141.76176453 320.49807739 C135.53438087 320.76887096 129.30695432 321.03007621 123.07788086 321.25927734 C112.63029107 321.64845693 102.31456569 322.174151 91.9375 323.5 C76.90926258 325.35669967 61.99790621 326.22387356 46.86499023 326.29516602 C45.15787516 326.30675905 43.45079834 326.32732445 41.74389648 326.35668945 C21.34364035 326.70516219 7.76869276 320.83822519 -7.21240234 306.83251953 C-13.16276261 301.06026044 -18.14890921 294.70287773 -23 288 C-23.5470459 287.26346191 -24.0940918 286.52692383 -24.65771484 285.76806641 C-26.38511344 283.42795596 -28.07182103 281.0630944 -29.75 278.6875 C-30.28826416 277.95901855 -30.82652832 277.23053711 -31.38110352 276.47998047 C-33.83792622 272.89719856 -35.41064062 270.20628862 -35.046875 265.7890625 C-34.74602024 264.18294764 -34.39143358 262.58647354 -34 261 C-33.76635742 260.01781494 -33.53271484 259.03562988 -33.29199219 258.02368164 C-32.41796783 254.56050267 -31.47009155 251.12498324 -30.5 247.6875 C-30.14687744 246.42365479 -29.79375488 245.15980957 -29.42993164 243.85766602 C-23.28349132 222.03782837 -16.63500107 199.98263545 -8 179 C-2.23404163 179.6317065 3.30617343 180.63951251 8.94921875 181.96875 C9.79174698 182.16482346 10.63427521 182.36089691 11.50233459 182.56291199 C14.23232352 183.2020313 16.96015025 183.84971503 19.6875 184.5 C21.09002014 184.83313705 21.09002014 184.83313705 22.52087402 185.17300415 C37.83204739 188.82645749 52.83318014 193.02220013 67.78857422 197.94628906 C72.12081366 199.36775367 76.46799228 200.74036997 80.81542969 202.11450195 C84.88001453 203.40016365 88.94009076 204.69965832 93 206 C92.10023438 205.51273438 91.20046875 205.02546875 90.2734375 204.5234375 C67.37445526 191.96280154 45.29737936 177.30492545 24.09887695 162.04443359 C21.51391675 160.33904821 18.96591437 158.90417815 16.23510742 157.45947266 C3.66326731 150.45088533 3.66326731 150.45088533 0.92523193 144.77011108 C-0.82234388 138.29485049 -0.3939391 131.64214366 -0.1875 125 C-0.18729232 122.73940534 -0.19593294 120.47879639 -0.21240234 118.21826172 C-0.23214588 112.97582616 -0.18954722 107.73681846 -0.10986328 102.49511719 C0.03839144 92.31535267 -0.00498622 82.13724151 -0.04586983 71.95676422 C-0.14127529 47.97064858 -0.10192059 23.98600629 0 0 Z " fill="#FDFDFD" transform="translate(118,134)"/>
<path d="M0 0 C7.14853022 1.43731234 13.90282011 3.523586 20.79296875 5.89453125 C22.48438744 6.47023613 22.48438744 6.47023613 24.2099762 7.05757141 C27.87068351 8.30477158 31.52907253 9.55862993 35.1875 10.8125 C37.72459202 11.67857826 40.26220521 12.54312476 42.79980469 13.40771484 C53.92524286 17.20029088 65.04379652 21.01293401 76.16015625 24.83203125 C78.58875503 25.66609428 81.01738493 26.50006641 83.44607544 27.3338623 C84.977817 27.85984241 86.5094542 28.38612656 88.04098511 28.91271973 C99.3483134 32.79814743 110.69316505 36.54224697 122.10449219 40.11181641 C123.13735352 40.43714355 124.17021484 40.7624707 125.234375 41.09765625 C126.11319336 41.37101807 126.99201172 41.64437988 127.89746094 41.92602539 C130.55272476 42.84517125 133.13139984 43.84891502 135.7331543 44.90649414 C140.77317106 46.94207606 145.87192508 48.70413621 151.03515625 50.3984375 C151.97435913 50.70963531 152.91356201 51.02083313 153.88122559 51.34146118 C155.89380597 52.00817638 157.90680787 52.67362032 159.92019653 53.33789062 C165.3242597 55.12148812 170.7246131 56.91624533 176.125 58.7109375 C177.21849258 59.07419128 178.31198517 59.43744507 179.43861389 59.81170654 C188.67627132 62.8841136 197.89617981 66.00641493 207.10641479 69.15997314 C209.56362807 70.00038582 212.02203564 70.83722083 214.48071289 71.67333984 C222.81407012 74.51189301 231.13025484 77.39201146 239.42454529 80.34301758 C243.72800329 81.87077187 248.0375484 83.38089503 252.34786987 84.88916016 C254.42922864 85.62265026 256.50771054 86.3643618 258.58303833 87.11474609 C261.47551939 88.15993698 264.37671488 89.17637937 267.28125 90.1875 C268.13259018 90.50332031 268.98393036 90.81914062 269.86106873 91.14453125 C275.93974468 93.21570818 279.94583034 92.98647964 286 91 C287.41100983 90.55693512 287.41100983 90.55693512 288.8505249 90.10491943 C292.17686847 89.03148723 295.48304787 87.90789915 298.7890625 86.7734375 C300.02519791 86.35349014 301.26133331 85.93354279 302.53492737 85.50086975 C305.87429964 84.36630964 309.21168043 83.22599689 312.54870224 82.08454514 C316.04343194 80.89027112 319.53999267 79.70138223 323.03637695 78.51196289 C328.68780513 76.58873367 334.33820628 74.6625184 339.98779297 72.73388672 C347.09534948 70.30763755 354.20530101 67.88848644 361.31640625 65.47265625 C382.85577345 58.1562432 382.85577345 58.1562432 404.37109375 50.76953125 C407.28891672 49.76259775 410.20687902 48.75606953 413.125 47.75 C413.82250366 47.50943878 414.52000732 47.26887756 415.23864746 47.02102661 C427.21237341 42.89736687 439.24949115 38.98664492 451.306427 35.11413574 C462.40639153 31.54459633 473.41211916 27.78000708 484.37207031 23.79736328 C495.55611047 19.75121024 506.83576835 16.00717739 518.13110352 12.28515625 C519.57047824 11.80990484 521.00985002 11.33464454 522.44921875 10.859375 C523.14819778 10.62972046 523.84717682 10.40006592 524.56733704 10.16345215 C528.31910854 8.92233206 532.04567444 7.63091564 535.75634766 6.27148438 C536.53307327 5.98871643 537.30979889 5.70594849 538.11006165 5.41461182 C539.60067547 4.86880512 541.08847538 4.31523284 542.57292175 3.75286865 C547.66839458 1.88946486 547.66839458 1.88946486 551 3 C531.88497799 12.3671655 512.7708735 21.70031643 493.37109375 30.46679688 C489.38567297 32.27940134 485.41115509 34.11490643 481.4375 35.953125 C453.7027309 48.77661936 425.76213971 61.02386216 397.625 72.9375 C396.67890869 73.33878113 395.73281738 73.74006226 394.75805664 74.15350342 C383.838562 78.7808069 372.88708468 83.28231768 361.81201172 87.52490234 C356.49314015 89.56693897 351.25068988 91.78998539 346 94 C344.14848435 94.77717941 342.29443203 95.54835243 340.4375 96.3125 C339.65246094 96.63863281 338.86742187 96.96476562 338.05859375 97.30078125 C336 98 336 98 333 98 C333.309375 99.11375 333.309375 99.11375 333.625 100.25 C334 103 334 103 333.11132812 104.69702148 C331.57864597 107.87316182 331.14512862 111.14703692 330.59375 114.59765625 C330.33576175 116.13316493 330.07660714 117.668478 329.81640625 119.20361328 C329.68314941 119.9958429 329.54989258 120.78807251 329.41259766 121.60430908 C328.74986353 125.45238264 328.01704293 129.28642935 327.28125 133.12109375 C327.06251221 134.26754868 327.06251221 134.26754868 326.83935547 135.43716431 C326.24561173 138.54776073 325.64978419 141.65795253 325.05224609 144.76782227 C322.48802497 158.12839517 319.97313459 171.50949979 318.1875 185 C317.23152193 190.73586839 315.41529912 196.0628528 313.51977539 201.54101562 C311.3594631 207.80919934 309.45407669 214.12781653 307.625 220.5 C298.57083138 251.92580335 288.40302098 282.99963965 278 314 C275.23411924 312.61705962 275.06328693 310.76975959 274.12257385 307.95967102 C273.77766151 306.89102058 273.77766151 306.89102058 273.42578125 305.80078125 C273.05893471 304.69400276 273.05893471 304.69400276 272.68467712 303.56486511 C271.88642727 301.14981478 271.09918158 298.73134098 270.3125 296.3125 C269.76512526 294.64567667 269.21727208 292.97901039 268.66894531 291.3125 C267.33545197 287.25246909 266.01144607 283.18942405 264.69122314 279.12506104 C263.77711447 276.31477214 262.85473586 273.50720882 261.93359375 270.69921875 C258.34697853 259.67578453 255.13258731 248.56136484 251.98608398 237.4050293 C249.8874316 229.99733154 247.67397468 222.64052198 245.3125 215.3125 C245.02463623 214.4160376 244.73677246 213.5195752 244.44018555 212.59594727 C243.88604932 210.87088461 243.33177411 209.14586658 242.77734375 207.42089844 C242.39255859 206.22255371 242.39255859 206.22255371 242 205 C241.76152344 204.25782227 241.52304687 203.51564453 241.27734375 202.75097656 C236.4799535 187.66661094 233.82099944 172.25523901 231.28466797 156.65698242 C229.95368738 148.54571664 228.47330969 140.46133507 227 132.375 C226.81138397 131.33853333 226.81138397 131.33853333 226.61895752 130.28112793 C225.47743607 124.01271778 224.33400416 117.74486876 223.14453125 111.48535156 C223.0053125 110.75103912 222.86609375 110.01672668 222.72265625 109.26016235 C222.45477219 107.85032282 222.18531028 106.44078193 221.9140625 105.03158569 C221 100.22085571 221 100.22085571 221 98 C220.39051514 97.82803101 219.78103027 97.65606201 219.15307617 97.47888184 C213.04243809 95.70717743 207.18697532 93.59115706 201.3125 91.15625 C200.42047882 90.79081589 199.52845764 90.42538177 198.60940552 90.0488739 C195.73759176 88.87074305 192.86870717 87.6856729 190 86.5 C188.00383764 85.67856349 186.00758049 84.85735729 184.01123047 84.03637695 C169.63446973 78.11703921 155.28601524 72.13548662 141 66 C139.89849609 65.52884766 138.79699219 65.05769531 137.66210938 64.57226562 C117.75682686 56.05097792 98.00047411 47.20819572 78.27262878 38.284729 C74.05539909 36.377485 69.8354352 34.47663001 65.61108398 32.58520508 C64.71809601 32.18493103 63.82510803 31.78465698 62.90505981 31.37225342 C61.20426719 30.61021419 59.50294963 29.84934494 57.80099487 29.08990479 C51.60353991 26.31138382 45.53150908 23.3266939 39.48046875 20.2421875 C32.69271344 16.81742041 25.81566124 13.57357089 18.9543457 10.29956055 C12.60251639 7.26475839 6.28384889 4.17328271 0 1 C0 0.67 0 0.34 0 0 Z " fill="#FCFCFC" transform="translate(29,65)"/>
<path d="M0 0 C0.33 0 0.66 0 1 0 C1.02362877 10.65255758 1.04116311 21.30510851 1.05181217 31.95768738 C1.05693441 36.90913852 1.06382593 41.8605712 1.07543945 46.81201172 C1.1266751 69.23818726 1.01504422 91.63975407 0.34156799 114.05725098 C0.29559627 115.60123012 0.24984775 117.14521593 0.2043457 118.68920898 C0.17219121 119.77937301 0.17219121 119.77937301 0.13938713 120.89156055 C-0.00397591 126.13760126 -0.0041786 131.36993428 0.10604858 136.61636353 C0.17576548 145.61500739 0.17576548 145.61500739 -3.01953125 149.37890625 C-5.91113638 151.27136232 -8.85037119 152.58266704 -12 154 C-14.27677172 155.54495224 -16.48504415 157.10799329 -18.6875 158.75 C-19.88109207 159.61306141 -21.07644239 160.47369581 -22.2734375 161.33203125 C-23.18754395 161.98872803 -23.18754395 161.98872803 -24.12011719 162.65869141 C-35.51610755 170.78980453 -47.20071646 178.47051616 -59 186 C-59.76747559 186.49145508 -60.53495117 186.98291016 -61.32568359 187.48925781 C-71.73711539 194.15034666 -82.24874418 200.59060483 -92.93798828 206.79541016 C-94.96527582 207.97971476 -96.98204194 209.18006433 -98.99609375 210.38671875 C-107.54550031 215.49778824 -116.20592104 220.39416156 -124.9375 225.1875 C-125.99912354 225.77700439 -127.06074707 226.36650879 -128.15454102 226.97387695 C-129.14381592 227.51230225 -130.13309082 228.05072754 -131.15234375 228.60546875 C-132.03913818 229.09168701 -132.92593262 229.57790527 -133.83959961 230.07885742 C-134.55253174 230.38283447 -135.26546387 230.68681152 -136 231 C-136.66 230.67 -137.32 230.34 -138 230 C-132.12774292 224.55197442 -126.22476572 219.27218869 -119.921875 214.32421875 C-116.86396993 211.89179426 -113.85649776 209.4052932 -110.85058594 206.90917969 C-103.93734133 201.17291573 -96.97346831 195.56423847 -89.72021484 190.25927734 C-87.71175962 188.78899462 -85.70930506 187.31072071 -83.70703125 185.83203125 C-80.48324574 183.45193154 -77.25630486 181.07619768 -74.02734375 178.703125 C-70.65706764 176.22453629 -67.29594539 173.73421729 -63.94140625 171.234375 C-56.63380918 165.79792983 -49.37415969 160.41524416 -41.609375 155.640625 C-38.46632308 153.66445463 -35.4191209 151.56116277 -32.375 149.4375 C-31.29347656 148.6846875 -30.21195312 147.931875 -29.09765625 147.15625 C-28.07542969 146.4446875 -27.05320312 145.733125 -26 145 C-24.27523302 143.80611874 -22.5466438 142.61771985 -20.8125 141.4375 C-20.11769531 140.96183594 -19.42289062 140.48617187 -18.70703125 139.99609375 C-17 139 -17 139 -15 139 C-15.02537842 138.0207959 -15.05075684 137.0415918 -15.0769043 136.03271484 C-15.28623611 124.09484679 -14.19202101 112.47129745 -12.8125 100.625 C-12.58465503 98.61157142 -12.35753697 96.59806047 -12.13110352 94.58447266 C-11.66316852 90.44039754 -11.18916406 86.29708386 -10.70996094 82.15429688 C-10.13572813 77.18934358 -9.57256182 72.2232342 -9.01423645 67.25646973 C-3.18123392 15.41276783 -3.18123392 15.41276783 0 0 Z " fill="#F7F7F7" transform="translate(493,134)"/>
<path d="M0 0 C1.53333603 2.94942348 2.37787219 5.3532666 2.859375 8.65234375 C3.00246094 9.62856689 3.14554687 10.60479004 3.29296875 11.6105957 C3.51919922 13.25741333 3.51919922 13.25741333 3.75 14.9375 C3.91628906 16.12625732 4.08257812 17.31501465 4.25390625 18.53979492 C7.13659601 39.56731639 9.34452199 60.68999932 11.64855957 81.7868042 C11.98349918 84.84913412 12.32100992 87.91116987 12.65917969 90.97314453 C13.15300017 95.45480883 13.63739244 99.93738674 14.11328125 104.42098999 C14.28429128 106.02446823 14.45769111 107.62769389 14.63378906 109.23062134 C15.72473817 119.20358076 16.21402296 128.96287218 16 139 C16.70092773 139.2489502 17.40185547 139.49790039 18.12402344 139.75439453 C21.38304475 141.16589935 24.08207777 142.92681109 27.015625 144.9296875 C27.58410156 145.31608902 28.15257812 145.70249054 28.73828125 146.1006012 C30.57893043 147.35382014 32.41462044 148.61407885 34.25 149.875 C35.52296003 150.74509539 36.79607288 151.61496724 38.06933594 152.48461914 C52.25789215 162.18897913 66.25987808 172.0847383 79.96337891 182.46484375 C82.10723893 184.08083414 84.26123887 185.68248244 86.41796875 187.28125 C87.14298584 187.82007813 87.86800293 188.35890625 88.61499023 188.9140625 C89.99945913 189.94247987 91.38559227 190.96866207 92.77368164 191.9921875 C96.09930382 194.46961563 99.1579011 196.95694461 102 200 C101.01 200.33 100.02 200.66 99 201 C97.81480735 203.43276386 97 205.28017286 97 208 C94 208 94 208 92.67578125 206.70703125 C92.12277344 206.14371094 91.56976563 205.58039063 91 205 C89.08826477 203.85180199 87.14533505 202.75519481 85.1875 201.6875 C64.09681252 189.93352494 43.69635581 176.15237201 24.09887695 162.04443359 C21.51391675 160.33904821 18.96591437 158.90417815 16.23510742 157.45947266 C3.66326731 150.45088533 3.66326731 150.45088533 0.92523193 144.77011108 C-0.82234388 138.29485049 -0.3939391 131.64214366 -0.1875 125 C-0.18729232 122.73940534 -0.19593294 120.47879639 -0.21240234 118.21826172 C-0.23214588 112.97582616 -0.18954722 107.73681846 -0.10986328 102.49511719 C0.03839144 92.31535267 -0.00498622 82.13724151 -0.04586983 71.95676422 C-0.14127529 47.97064858 -0.10192059 23.98600629 0 0 Z " fill="#F6F6F6" transform="translate(118,134)"/>
<path d="M0 0 C0.66 0.99 1.32 1.98 2 3 C1.54850586 3.75494751 1.54850586 3.75494751 1.08789062 4.52514648 C-0.34739774 7.79029867 -0.84759018 11.10146996 -1.40625 14.59765625 C-1.66423825 16.13316493 -1.92339286 17.668478 -2.18359375 19.20361328 C-2.383479 20.3919577 -2.383479 20.3919577 -2.58740234 21.60430908 C-3.25013647 25.45238264 -3.98295707 29.28642935 -4.71875 33.12109375 C-4.8645752 33.88539703 -5.01040039 34.64970032 -5.16064453 35.43716431 C-5.75438827 38.54776073 -6.35021581 41.65795253 -6.94775391 44.76782227 C-9.51197503 58.12839517 -12.02686541 71.50949979 -13.8125 85 C-14.76847807 90.73586839 -16.58470088 96.0628528 -18.48022461 101.54101562 C-20.64053186 107.80918471 -22.54619634 114.12774602 -24.375 120.5 C-27.1671725 130.20486281 -30.08624122 139.86420783 -33.07177734 149.51123047 C-36.10704191 159.32331547 -39.06706854 169.15690427 -42 179 C-42.33 179 -42.66 179 -43 179 C-43 177.65429688 -43 176.30859375 -43 174.96289062 C-43.00008057 174.05873413 -43.00016113 173.15457764 -43.00024414 172.22302246 C-43.00007731 170.12740056 -42.9992327 168.03177864 -42.99780273 165.93615723 C-42.99464357 159.59142582 -43.00573418 153.24700355 -43.03515625 146.90234375 C-43.06432156 140.35530204 -43.05789484 133.80896337 -43.02334595 127.26194763 C-43.00463204 123.48801903 -43.00116778 119.71528988 -43.03076172 115.94140625 C-43.25427341 84.90118866 -43.25427341 84.90118866 -34 71 C-32.81107435 68.652285 -31.65812382 66.28598363 -30.54296875 63.90234375 C-29.99342529 62.7632959 -29.44388184 61.62424805 -28.87768555 60.45068359 C-28.31992432 59.29133301 -27.76216309 58.13198242 -27.1875 56.9375 C-26.58184296 55.68047439 -25.97612894 54.42347623 -25.37036133 53.16650391 C-16.84820413 35.47534484 -8.3902121 17.75410314 0 0 Z " fill="#8A8A8A" transform="translate(361,165)"/>
<path d="M0 0 C2.84843137 1.42421569 2.98863651 3.11033891 4.125 6.0625 C6.0480749 10.82572308 8.15925201 15.43079747 10.5 20 C14.67363152 28.1802768 18.5105395 36.51083208 22.35250854 44.8505249 C25.94456098 52.6424142 29.62404751 60.36745334 33.52416992 68.00927734 C35.63980549 72.18531297 37.48898163 76.39949181 39.11328125 80.7890625 C39.98577579 83.1252721 39.98577579 83.1252721 41.53413391 85.60220337 C43.34490074 89.79946086 43.4027364 93.06549759 43.34057617 97.57568359 C43.34123329 98.83520844 43.34123329 98.83520844 43.34190369 100.12017822 C43.33982318 102.87983922 43.31652724 105.63888338 43.29296875 108.3984375 C43.28737017 110.31799996 43.28310131 112.23756672 43.28010559 114.15713501 C43.2686775 119.19765151 43.23922781 124.23790671 43.20599365 129.27832031 C43.17524887 134.42639634 43.16159084 139.57451478 43.14648438 144.72265625 C43.11435619 154.81521867 43.06318444 164.90758756 43 175 C40.68073123 171.52109685 39.59490415 168.01554976 38.375 164.0625 C38.11775146 163.23983643 37.86050293 162.41717285 37.59545898 161.56958008 C34.92846709 152.9442303 32.49348481 144.25313843 30.03930664 135.56542969 C27.92058078 128.10517007 25.69098718 120.6939217 23.3125 113.3125 C23.0247168 112.4162793 22.73693359 111.52005859 22.44042969 110.59667969 C21.8862095 108.87137372 21.33185285 107.14611157 20.77734375 105.42089844 C20.52082031 104.62200195 20.26429688 103.82310547 20 103 C19.76152344 102.25782227 19.52304687 101.51564453 19.27734375 100.75097656 C14.48122847 85.67061982 11.819555 70.26275452 9.28686523 54.66796875 C7.47864944 43.6391688 5.41243123 32.65357129 3.40234375 21.66015625 C3.281474 20.99789032 3.16060425 20.33562439 3.03607178 19.65328979 C2.4879559 16.65280769 1.93487685 13.65343554 1.37158203 10.65576172 C1.18837402 9.67494629 1.00516602 8.69413086 0.81640625 7.68359375 C0.6572876 6.8423999 0.49816895 6.00120605 0.33422852 5.13452148 C0 3 0 3 0 0 Z " fill="#B1B1B1" transform="translate(251,167)"/>
<path d="M0 0 C0 2 0 2 -2.125 4.21875 C-2.58261719 4.65832031 -3.04023438 5.09789062 -3.51171875 5.55078125 C-6.12178824 8.09234498 -8.54264689 10.81188023 -11 13.5 C-14.58579425 17.42253128 -18.21472291 21.26666496 -22 25 C-22.804375 25.804375 -23.60875 26.60875 -24.4375 27.4375 C-25.7059375 28.7059375 -25.7059375 28.7059375 -27 30 C-27.42579346 30.49612793 -27.85158691 30.99225586 -28.2902832 31.50341797 C-31.99022806 35.64605226 -35.22141294 37.0545278 -40.75 37.6875 C-41.51006348 37.79360596 -42.27012695 37.89971191 -43.05322266 38.0090332 C-45.69922752 38.36756974 -48.34862782 38.68368957 -51 39 C-53.17975312 39.28074097 -55.3594374 39.5620168 -57.5390625 39.84375 C-59.81738006 40.12764694 -62.09602721 40.40891173 -64.375 40.6875 C-65.44331055 40.81922607 -66.51162109 40.95095215 -67.61230469 41.08666992 C-74.77111431 41.90771041 -81.79683163 42.15238402 -89 42 C-84.46825794 38.97883862 -79.43065419 37.77957815 -74.25 36.1875 C-72.51327026 35.6447644 -72.51327026 35.6447644 -70.74145508 35.09106445 C-64.06797898 33.0579494 -57.47663474 31.43642327 -50.61108398 30.21411133 C-39.66104828 28.24173329 -33.54053393 25.39187447 -25.74023438 17.6015625 C-22.24730679 14.38697145 -18.30946917 11.73396969 -14.4375 9 C-13.27480591 8.17242187 -13.27480591 8.17242187 -12.08862305 7.328125 C-10.69435406 6.33588072 -9.29843167 5.34595154 -7.90014648 4.359375 C-6.53584678 3.38334766 -5.19950002 2.36779796 -3.88305664 1.328125 C-2 0 -2 0 0 0 Z " fill="#1D95D8" transform="translate(467,187)"/>
<path d="M0 0 C3.78794203 1.75414765 6.82866849 4.09390674 10.09765625 6.66015625 C12.0629958 8.18085277 12.0629958 8.18085277 15 9 C16.02019573 9.9793879 17.02149805 10.97895449 18 12 C18.66 12.33 19.32 12.66 20 13 C20 13.66 20 14.32 20 15 C20.56460938 15.2578125 21.12921875 15.515625 21.7109375 15.78125 C24.24936904 17.13276986 26.3685305 18.7189739 28.625 20.5 C29.78902344 21.41265625 29.78902344 21.41265625 30.9765625 22.34375 C33 24 33 24 35 26 C36.97455005 26.56910269 38.9754957 27.04788383 40.984375 27.48046875 C42.2204248 27.75431396 43.45647461 28.02815918 44.72998047 28.31030273 C45.38657654 28.45329803 46.04317261 28.59629333 46.71966553 28.74362183 C60.41980973 31.73879088 73.72214097 35.45902742 87 40 C87 40.33 87 40.66 87 41 C74.24851285 41.34394621 61.6349918 39.52722592 49 38 C48.06881348 37.89316895 47.13762695 37.78633789 46.17822266 37.67626953 C36.90330048 36.57413732 30.38453857 35.283397 24 28 C22.6346626 26.65865096 21.26890134 25.31769587 19.89477539 23.98535156 C15.00544792 19.21152002 10.41878741 14.21021202 6 9 C5.41992188 8.34773437 4.83984375 7.69546875 4.2421875 7.0234375 C3.41074219 6.08371094 3.41074219 6.08371094 2.5625 5.125 C1.82193359 4.29355469 1.82193359 4.29355469 1.06640625 3.4453125 C0 2 0 2 0 0 Z " fill="#12A0EA" transform="translate(155,188)"/>
<path d="M0 0 C7.38569344 1.47238905 14.35759631 3.68151053 21.47265625 6.1328125 C22.6363121 6.52951141 23.79996796 6.92621033 24.99888611 7.33493042 C28.68830179 8.59381904 32.3754154 9.85930235 36.0625 11.125 C38.57453747 11.98404879 41.08708718 12.84158761 43.59960938 13.69921875 C49.73479506 15.79447028 55.86810796 17.89513019 62 20 C61.34 21.32 60.68 22.64 60 24 C60.99 24.33 61.98 24.66 63 25 C63.495 26.485 63.495 26.485 64 28 C64.99 28.99 64.99 28.99 66 30 C63.22649707 31.1251904 62.11100641 31.04022985 59.2487793 30.00292969 C58.20117432 29.48118164 57.15356934 28.95943359 56.07421875 28.421875 C54.30655151 27.55357056 54.30655151 27.55357056 52.50317383 26.66772461 C51.23121095 26.02862556 49.95932126 25.38938083 48.6875 24.75 C47.38302573 24.10494558 46.07792473 23.4611571 44.7722168 22.81860352 C42.12159702 21.51330305 39.47358246 20.20292423 36.82714844 18.88916016 C31.35139991 16.17772883 25.83230995 13.55775937 20.3125 10.9375 C13.50272687 7.70003688 6.73285909 4.39480213 0 1 C0 0.67 0 0.34 0 0 Z " fill="#F1F1F1" transform="translate(29,65)"/>
<path d="M0 0 C-11.56638582 5.66921554 -23.14654034 11.30932223 -34.74591064 16.9107666 C-36.78060652 17.89398348 -38.8140061 18.87982748 -40.84716797 19.86621094 C-43.91086686 21.3454218 -46.98349447 22.80299145 -50.0625 24.25 C-50.93342285 24.6732959 -51.8043457 25.0965918 -52.70166016 25.53271484 C-53.49233887 25.8983252 -54.28301758 26.26393555 -55.09765625 26.640625 C-56.09551147 27.11290527 -56.09551147 27.11290527 -57.11352539 27.59472656 C-59.66060061 28.14191756 -60.8361628 27.33686814 -63 26 C-61.68 26 -60.36 26 -59 26 C-59.75150023 22.72226496 -59.75150023 22.72226496 -63 21 C-61.64424905 18.28849811 -59.91726327 18.09498402 -57.16355896 17.14823914 C-56.13706993 16.80802483 -56.13706993 16.80802483 -55.08984375 16.4609375 C-54.37856827 16.21869949 -53.66729279 15.97646149 -52.9344635 15.72688293 C-50.60458106 14.93549521 -48.27124796 14.15490775 -45.9375 13.375 C-44.34162962 12.83684012 -42.74592696 12.29818265 -41.15039062 11.7590332 C-37.94903225 10.67844525 -34.74622929 9.60228672 -31.54248047 8.52880859 C-27.50108358 7.17240501 -23.47013452 5.78810275 -19.44140625 4.39453125 C-17.29436135 3.65859003 -15.14723273 2.92289301 -13 2.1875 C-12.01765381 1.84444824 -11.03530762 1.50139648 -10.02319336 1.14794922 C-9.12866455 0.84518066 -8.23413574 0.54241211 -7.3125 0.23046875 C-6.16201172 -0.16555542 -6.16201172 -0.16555542 -4.98828125 -0.56958008 C-3 -1 -3 -1 0 0 Z " fill="#EFEFEF" transform="translate(580,68)"/>
<path d="M0 0 C0.12375 0.639375 0.2475 1.27875 0.375 1.9375 C0.58125 2.618125 0.7875 3.29875 1 4 C1.66 4.33 2.32 4.66 3 5 C3.33 4.34 3.66 3.68 4 3 C4.99 4.32 5.98 5.64 7 7 C3.3934712 9.00922444 -0.21374406 11.01720985 -3.8215332 13.02416992 C-5.04241433 13.70353764 -6.26312441 14.38321285 -7.48364258 15.06323242 C-11.04908648 17.049589 -14.61886893 19.02781381 -18.19281006 20.99884033 C-20.04118767 22.02281743 -21.88313893 23.05779104 -23.72509766 24.09326172 C-24.9063633 24.74875498 -26.08783313 25.40388046 -27.26953125 26.05859375 C-28.32374268 26.64825928 -29.3779541 27.2379248 -30.46411133 27.84545898 C-31.30095459 28.22645752 -32.13779785 28.60745605 -33 29 C-33.66 28.67 -34.32 28.34 -35 28 C-29.03562648 22.46651278 -23.03668815 17.11300773 -16.62890625 12.09375 C-14.64867802 10.51662915 -12.7064114 8.91893321 -10.77734375 7.28125 C-10.23263428 6.81976563 -9.6879248 6.35828125 -9.12670898 5.8828125 C-7.57125899 4.56057496 -6.0199033 3.2335255 -4.46875 1.90625 C-2 0 -2 0 0 0 Z " fill="#F2F2F2" transform="translate(390,336)"/>
<path d="M0 0 C1.05832031 0.26941406 2.11664063 0.53882813 3.20703125 0.81640625 C8.1586352 2.09003085 13.05486049 3.40709561 17.875 5.125 C17.875 6.115 17.875 7.105 17.875 8.125 C12.125 8.25 12.125 8.25 9.875 7.125 C7.18461814 6.94096736 4.5058208 6.80053248 1.8125 6.6875 C-15.09013861 5.80486954 -15.09013861 5.80486954 -21.125 0.125 C-22.115 -0.535 -23.105 -1.195 -24.125 -1.875 C-15.99980419 -4.5833986 -7.94532476 -2.09600592 0 0 Z " fill="#0FA5F6" transform="translate(212.125,218.875)"/>
<path d="M0 0 C0 0.66 0 1.32 0 2 C-0.639375 2.12375 -1.27875 2.2475 -1.9375 2.375 C-2.618125 2.58125 -3.29875 2.7875 -4 3 C-4.33 3.66 -4.66 4.32 -5 5 C0.28 5 5.56 5 11 5 C7.54596475 7.30269017 4.70040748 7.62230526 0.69140625 8.0703125 C-0.03055435 8.15626678 -0.75251495 8.24222107 -1.49635315 8.33078003 C-3.02827703 8.51109612 -4.56068317 8.68735447 -6.09350586 8.85986328 C-8.39908928 9.12065524 -10.70237154 9.39715548 -13.00585938 9.67578125 C-21.37025498 10.65894971 -29.56244737 11.27704478 -38 11 C-34.99372254 8.99581503 -32.62982838 8.13932343 -29.1953125 7.08984375 C-28.05449219 6.73986328 -26.91367187 6.38988281 -25.73828125 6.02929688 C-24.54589844 5.66900391 -23.35351562 5.30871094 -22.125 4.9375 C-20.34802734 4.39125977 -20.34802734 4.39125977 -18.53515625 3.83398438 C-5.96308919 0 -5.96308919 0 0 0 Z " fill="#179ADE" transform="translate(416,218)"/>
<path d="M0 0 C3.09361183 1.75583374 5.50018479 3.50018479 8 6 C10.09989652 7.17574711 10.09989652 7.17574711 12 8 C11.01 8.66 10.02 9.32 9 10 C11.475 10.99 11.475 10.99 14 12 C14 12.66 14 13.32 14 14 C20.59086758 15.79750934 26.90992354 16.34796887 33.70678711 16.57006836 C38.71872112 16.77481465 43.16464137 17.65110355 48 19 C48 18.34 48 17.68 48 17 C49.6266848 17.28211877 51.25132896 17.57602375 52.875 17.875 C53.77992188 18.03742188 54.68484375 18.19984375 55.6171875 18.3671875 C58 19 58 19 60 21 C47.25154776 21.34386435 34.63089264 19.54124779 22 18 C20.59524414 17.83177734 20.59524414 17.83177734 19.16210938 17.66015625 C3.8390405 15.73735442 3.8390405 15.73735442 -2 9 C-0.68 8.67 0.64 8.34 2 8 C2.33 8.66 2.66 9.32 3 10 C3.21081851 6.10540926 3.21081851 6.10540926 2 3 C1.34 2.67 0.68 2.34 0 2 C0 1.34 0 0.68 0 0 Z " fill="#1699E2" transform="translate(182,208)"/>
<path d="M0 0 C2.10388569 -0.05402274 4.20816714 -0.09280256 6.3125 -0.125 C8.07013672 -0.15980469 8.07013672 -0.15980469 9.86328125 -0.1953125 C13 0 13 0 16 2 C16 2.66 16 3.32 16 4 C12.78548108 6.14301261 11.32440968 6.37613434 7.5625 6.6875 C6.61503906 6.77386719 5.66757813 6.86023438 4.69140625 6.94921875 C2.15620994 6.99705264 0.42477592 6.62933115 -2 6 C-8.95557712 5.60903292 -15.42831567 5.55472211 -22 8 C-22 8.66 -22 9.32 -22 10 C-24.875 9.6875 -24.875 9.6875 -28 9 C-28.66 8.01 -29.32 7.02 -30 6 C-27.36 6 -24.72 6 -22 6 C-22 5.01 -22 4.02 -22 3 C-24.64 3 -27.28 3 -30 3 C-30 2.34 -30 1.68 -30 1 C-28.18242187 1.19916016 -28.18242187 1.19916016 -26.328125 1.40234375 C-14.22626901 2.69044874 -2.15926971 3.50845505 10 4 C6.7 3.01 3.4 2.02 0 1 C0 0.67 0 0.34 0 0 Z " fill="#010F21" transform="translate(230,224)"/>
<path d="M0 0 C0 2.63664741 -0.25223886 4.50746285 -1 7 C-2 8 -2 8 -4.22485352 8.11352539 C-5.18319092 8.10828857 -6.14152832 8.10305176 -7.12890625 8.09765625 C-8.68061523 8.09282227 -8.68061523 8.09282227 -10.26367188 8.08789062 C-11.35228516 8.07951172 -12.44089844 8.07113281 -13.5625 8.0625 C-15.2012207 8.05573242 -15.2012207 8.05573242 -16.87304688 8.04882812 C-19.58208495 8.03699826 -22.29101599 8.02051543 -25 8 C-24.67 7.01 -24.34 6.02 -24 5 C-22.68 5 -21.36 5 -20 5 C-20 4.34 -20 3.68 -20 3 C-18.21142578 2.80083984 -18.21142578 2.80083984 -16.38671875 2.59765625 C-14.82029322 2.41944017 -13.25388802 2.24104544 -11.6875 2.0625 C-10.90181641 1.97548828 -10.11613281 1.88847656 -9.30664062 1.79882812 C-8.54931641 1.71181641 -7.79199219 1.62480469 -7.01171875 1.53515625 C-5.96697388 1.41732788 -5.96697388 1.41732788 -4.90112305 1.29711914 C-2.78351766 1.02003217 -2.78351766 1.02003217 0 0 Z " fill="#08A5F4" transform="translate(436,215)"/>
<path d="M0 0 C1.32 0.66 2.64 1.32 4 2 C4 2.99 4 3.98 4 5 C8.82442184 3.73053486 8.82442184 3.73053486 12 0 C13.32 0.33 14.64 0.66 16 1 C13.75131288 2.9390417 11.50111139 4.87627622 9.25 6.8125 C8.61578125 7.35970703 7.9815625 7.90691406 7.328125 8.47070312 C-1.91594085 16.41482221 -1.91594085 16.41482221 -8 16 C-8 14.35 -8 12.7 -8 11 C-7.01 11 -6.02 11 -5 11 C-5 10.34 -5 9.68 -5 9 C-2.36 9 0.28 9 3 9 C2.505 8.443125 2.01 7.88625 1.5 7.3125 C-0.24754367 4.61837017 -0.26218749 3.14624993 0 0 Z " fill="#060717" transform="translate(432,199)"/>
<path d="M0 0 C6.75523606 1.3606681 13.08575595 3.28709973 19.5625 5.625 C20.47580078 5.94984375 21.38910156 6.2746875 22.33007812 6.609375 C24.55511941 7.40153629 26.77832175 8.1984659 29 9 C29.33 10.98 29.66 12.96 30 15 C19.67271 10.97033194 9.86658862 6.03196019 0 1 C0 0.67 0 0.34 0 0 Z " fill="#EBEBEB" transform="translate(29,65)"/>
<path d="M0 0 C1.05960938 0.2475 1.05960938 0.2475 2.140625 0.5 C5.08916292 1.01559133 7.76141659 1.06461802 10.75 1 C12.49959978 0.96257541 14.25063026 0.95303705 16 1 C17 2 17 2 18 5 C18.66 5.33 19.32 5.66 20 6 C20 6.66 20 7.32 20 8 C16.20196854 9.89901573 11.99175597 9.06756264 8 8 C4.95237739 6.00732368 2.40103015 3.73636956 0 1 C0 0.67 0 0.34 0 0 Z " fill="#070E1F" transform="translate(182,207)"/>
<path d="M0 0 C7.36698315 4.27841977 14.70761551 8.59552884 22 13 C20 14 20 14 17.56982422 13.37915039 C16.5748291 13.03875732 15.57983398 12.69836426 14.5546875 12.34765625 C13.47832031 11.98349609 12.40195313 11.61933594 11.29296875 11.24414062 C10.16503906 10.85419922 9.03710938 10.46425781 7.875 10.0625 C6.73933594 9.67642578 5.60367188 9.29035156 4.43359375 8.89257812 C1.62005203 7.93502821 -1.19092948 6.97057271 -4 6 C-3.34 5.38125 -2.68 4.7625 -2 4.125 C0.2284549 2.24362573 0.2284549 2.24362573 0 0 Z " fill="#1D1D1D" transform="translate(190,327)"/>
<path d="M0 0 C0.43570313 0.37511719 0.87140625 0.75023437 1.3203125 1.13671875 C4.27760796 3.67794451 7.24094051 6.20767208 10.25 8.6875 C13 11 13 11 14.625 12.6875 C16.25579342 14.37296825 16.25579342 14.37296825 20 16 C15.38 16 10.76 16 6 16 C5.07461831 12.29847322 4.91825838 11.36541838 6 8 C5.01 7.67 4.02 7.34 3 7 C3 6.34 3 5.68 3 5 C2.34 5 1.68 5 1 5 C0.67 3.35 0.34 1.7 0 0 Z " fill="#080F1B" transform="translate(171,208)"/>
<path d="M0 0 C3.96 0 7.92 0 12 0 C9.01353231 1.99097846 6.40312738 2.94124926 3 4 C9.21208953 4.04974646 15.36273111 3.87759909 21.5625 3.5 C22.38041016 3.45230469 23.19832031 3.40460938 24.04101562 3.35546875 C26.0274809 3.23930119 28.01376186 3.1199885 30 3 C26.22586958 5.34154165 22.19730672 5.70477708 17.875 6.1875 C17.12033447 6.27499512 16.36566895 6.36249023 15.58813477 6.45263672 C9.88791304 7.04970396 4.67885578 6.90140568 -1 6 C-1.33 5.01 -1.66 4.02 -2 3 C-1.34 3 -0.68 3 0 3 C0 2.01 0 1.02 0 0 Z " fill="#011B32" transform="translate(378,224)"/>
<path d="M0 0 C0.33 0.66 0.66 1.32 1 2 C1.66 1.34 2.32 0.68 3 0 C5.50357861 0.8345262 7.66785852 1.79371992 10 3 C9.67 4.32 9.34 5.64 9 7 C9.99 7.33 10.98 7.66 12 8 C6.44023272 7.19651204 1.06142645 5.82181116 -4.375 4.4375 C-5.30183594 4.20353516 -6.22867188 3.96957031 -7.18359375 3.72851562 C-9.45628078 3.15448643 -11.72838595 2.57825799 -14 2 C-14 1.67 -14 1.34 -14 1 C-12.73542969 1.01740234 -12.73542969 1.01740234 -11.4453125 1.03515625 C-10.34960938 1.04417969 -9.25390625 1.05320313 -8.125 1.0625 C-6.48917969 1.07990234 -6.48917969 1.07990234 -4.8203125 1.09765625 C-2.04822454 1.19744303 -2.04822454 1.19744303 0 0 Z " fill="#06050A" transform="translate(218,216)"/>
<path d="M0 0 C0.66 0.33 1.32 0.66 2 1 C1.67 1.99 1.34 2.98 1 4 C1.66 4 2.32 4 3 4 C3 4.66 3 5.32 3 6 C0.21526125 7.53378536 -2.57878338 9.0497558 -5.375 10.5625 C-6.1690625 11.00013672 -6.963125 11.43777344 -7.78125 11.88867188 C-8.54179687 12.29794922 -9.30234375 12.70722656 -10.0859375 13.12890625 C-11.1385376 13.70233765 -11.1385376 13.70233765 -12.21240234 14.28735352 C-12.80230957 14.52252686 -13.3922168 14.7577002 -14 15 C-14.66 14.67 -15.32 14.34 -16 14 C-14.2725597 12.4147483 -12.54312043 10.83177374 -10.8125 9.25 C-9.36810547 7.92742187 -9.36810547 7.92742187 -7.89453125 6.578125 C-5.32582261 4.29020637 -2.70839628 2.11918393 0 0 Z " fill="#EDEDED" transform="translate(371,350)"/>
<path d="M0 0 C-3.74066455 1.87345396 -7.49384594 3.72032408 -11.25 5.5625 C-12.31347656 6.09552734 -13.37695312 6.62855469 -14.47265625 7.17773438 C-15.49746094 7.67724609 -16.52226563 8.17675781 -17.578125 8.69140625 C-18.52075195 9.15748291 -19.46337891 9.62355957 -20.43457031 10.10375977 C-23.18465826 11.06451089 -24.32717889 11.03668061 -27 10 C-27 9.01 -27 8.02 -27 7 C-23.06742084 5.63123618 -19.12825633 4.28252168 -15.1875 2.9375 C-14.06794922 2.54755859 -12.94839844 2.15761719 -11.79492188 1.75585938 C-10.72177734 1.39169922 -9.64863281 1.02753906 -8.54296875 0.65234375 C-7.55321045 0.31195068 -6.56345215 -0.02844238 -5.54370117 -0.37915039 C-3 -1 -3 -1 0 0 Z " fill="#ECECEC" transform="translate(580,68)"/>
<path d="M0 0 C0 2 0 2 -2.125 4.1875 C-2.58648437 4.61804688 -3.04796875 5.04859375 -3.5234375 5.4921875 C-5.06515588 6.99025378 -5.06515588 6.99025378 -6.3515625 8.8828125 C-9.91271284 13.79680207 -9.91271284 13.79680207 -13.3828125 14.4453125 C-15.63031872 14.43826703 -17.77550985 14.31142862 -20 14 C-16.6332699 10.37949627 -12.88740631 7.59591293 -8.875 4.75 C-8.24207031 4.29109375 -7.60914063 3.8321875 -6.95703125 3.359375 C-2.24790737 0 -2.24790737 0 0 0 Z " fill="#1799D5" transform="translate(467,187)"/>
<path d="M0 0 C2.64 0.99 5.28 1.98 8 3 C7.67 3.99 7.34 4.98 7 6 C5.68 5.01 4.36 4.02 3 3 C3.93972656 4.13888672 3.93972656 4.13888672 4.8984375 5.30078125 C5.71570313 6.29464844 6.53296875 7.28851563 7.375 8.3125 C8.18710938 9.29863281 8.99921875 10.28476563 9.8359375 11.30078125 C12 14 12 14 14 17 C9.545 16.01 9.545 16.01 5 15 C5 13.35 5 11.7 5 10 C4.34 10 3.68 10 3 10 C0.96564469 6.27034861 0 4.33094958 0 0 Z " fill="#072136" transform="translate(152,185)"/>
<path d="M0 0 C1.98 0 3.96 0 6 0 C6 0.66 6 1.32 6 2 C8.64 2 11.28 2 14 2 C14 2.99 14 3.98 14 5 C12.88625 5.12375 11.7725 5.2475 10.625 5.375 C6.96896323 5.6465813 6.96896323 5.6465813 5 8 C2.69 7.34 0.38 6.68 -2 6 C-1.67 5.01 -1.34 4.02 -1 3 C-0.01 3 0.98 3 2 3 C2 2.34 2 1.68 2 1 C1.34 0.67 0.68 0.34 0 0 Z " fill="#0C0306" transform="translate(194,225)"/>
<path d="M0 0 C0.66 1.32 1.32 2.64 2 4 C-4.435 6.97 -4.435 6.97 -11 10 C-11.33 8.35 -11.66 6.7 -12 5 C-12.66 4.67 -13.32 4.34 -14 4 C-12.0429132 3.32968281 -10.08428887 2.66385317 -8.125 2 C-7.03445313 1.62875 -5.94390625 1.2575 -4.8203125 0.875 C-2 0 -2 0 0 0 Z " fill="#E9E9E9" transform="translate(553,76)"/>
<path d="M0 0 C0.33 0.99 0.66 1.98 1 3 C1.66 3 2.32 3 3 3 C3.33 2.01 3.66 1.02 4 0 C3.979375 0.9075 3.95875 1.815 3.9375 2.75 C3.82373896 5.79944799 3.82373896 5.79944799 4.625 7.75 C5.20075183 11.20451096 4.07642738 13.93169221 3.0625 17.25 C2.68222656 18.51328125 2.30195313 19.7765625 1.91015625 21.078125 C1.60980469 22.04234375 1.30945313 23.0065625 1 24 C0.67 24 0.34 24 0 24 C0 16.08 0 8.16 0 0 Z " fill="#979797" transform="translate(318,320)"/>
<path d="M0 0 C0 0.99 0 1.98 0 3 C-2.8125 3.1875 -2.8125 3.1875 -6 3 C-6.46446533 2.52071045 -6.92893066 2.0414209 -7.4074707 1.54760742 C-9.46176479 -0.44873939 -10.85249057 -0.57262613 -13.66796875 -0.94921875 C-14.56064453 -1.07490234 -15.45332031 -1.20058594 -16.37304688 -1.33007812 C-17.30181641 -1.44802734 -18.23058594 -1.56597656 -19.1875 -1.6875 C-20.12787109 -1.81705078 -21.06824219 -1.94660156 -22.03710938 -2.08007812 C-24.35679109 -2.39800405 -26.67741471 -2.70416763 -29 -3 C-29 -3.33 -29 -3.66 -29 -4 C-18.69906869 -5.92997133 -9.75008168 -3.34246812 0 0 Z " fill="#1594E0" transform="translate(230,224)"/>
<path d="M0 0 C3.33394127 0.11119164 6.66688349 0.24149734 10 0.375 C10.93457031 0.4059375 11.86914062 0.436875 12.83203125 0.46875 C18.49975528 0.7065566 23.54901628 1.41870048 29 3 C29 3.33 29 3.66 29 4 C9.40590031 4.38046796 9.40590031 4.38046796 2 2 C1.34 1.34 0.68 0.68 0 0 Z " fill="#05A6F9" transform="translate(194,221)"/>
<path d="M0 0 C2.31 0 4.62 0 7 0 C7 1.32 7 2.64 7 4 C4.87790224 4.69640673 2.75221473 5.38188357 0.625 6.0625 C-1.15003906 6.63677734 -1.15003906 6.63677734 -2.9609375 7.22265625 C-6 8 -6 8 -8 7 C-8 5.68 -8 4.36 -8 3 C-5.36 2.67 -2.72 2.34 0 2 C0 1.34 0 0.68 0 0 Z " fill="#0B1126" transform="translate(400,216)"/>
<path d="M0 0 C3.96 0 7.92 0 12 0 C13.24546405 2.49092811 12.7767578 3.41080733 12 6 C9.36 6.33 6.72 6.66 4 7 C4 6.01 4 5.02 4 4 C3.34 4 2.68 4 2 4 C1.34 2.68 0.68 1.36 0 0 Z " fill="#07040C" transform="translate(412,210)"/>
<path d="M0 0 C2.10388569 -0.05402274 4.20816714 -0.09280256 6.3125 -0.125 C8.07013672 -0.15980469 8.07013672 -0.15980469 9.86328125 -0.1953125 C13 0 13 0 16 2 C16 2.66 16 3.32 16 4 C11.15941747 7.22705502 5.2136913 7.49711787 -0.5 6.61328125 C-2.35274906 6.1467855 -4.18072109 5.58354229 -6 5 C-6 4.67 -6 4.34 -6 4 C-0.72 4 4.56 4 10 4 C6.7 3.01 3.4 2.02 0 1 C0 0.67 0 0.34 0 0 Z " fill="#04142B" transform="translate(230,224)"/>
<path d="M0 0 C3.465 1.485 3.465 1.485 7 3 C7 3.66 7 4.32 7 5 C7.639375 5.226875 8.27875 5.45375 8.9375 5.6875 C11 7 11 7 11.875 9.5 C11.91625 10.325 11.9575 11.15 12 12 C11.34 12.66 10.68 13.32 10 14 C9.67 13.01 9.34 12.02 9 11 C7.68 11 6.36 11 5 11 C4.67 9.35 4.34 7.7 4 6 C3.34 6 2.68 6 2 6 C1.34 5.34 0.68 4.68 0 4 C0 2.68 0 1.36 0 0 Z " fill="#0EA3F5" transform="translate(175,205)"/>
<path d="M0 0 C3.4375 0.8125 3.4375 0.8125 7 2 C7.33 2.99 7.66 3.98 8 5 C9.65 5 11.3 5 13 5 C13 6.32 13 7.64 13 9 C14.1446875 9.1546875 14.1446875 9.1546875 15.3125 9.3125 C18.17059424 10.04364039 19.15742885 10.76951913 21 13 C20.67 13.99 20.34 14.98 20 16 C17.96166576 14.7260411 15.96147874 13.38938077 14 12 C14 11.34 14 10.68 14 10 C11.525 9.01 11.525 9.01 9 8 C9 7.34 9 6.68 9 6 C8.443125 5.938125 7.88625 5.87625 7.3125 5.8125 C4.05012827 4.66626128 2.31332126 2.50609803 0 0 Z " fill="#04243C" transform="translate(161,191)"/>
<path d="M0 0 C0.33 0.99 0.66 1.98 1 3 C1.99 3 2.98 3 4 3 C4 3.66 4 4.32 4 5 C4.66 5.33 5.32 5.66 6 6 C4.68 6.99 3.36 7.98 2 9 C1.67 8.01 1.34 7.02 1 6 C-2.54660475 6 -6.08563346 6.28740818 -9.625 6.5 C-10.42679687 6.54769531 -11.22859375 6.59539062 -12.0546875 6.64453125 C-14.03648966 6.76249566 -16.01824896 6.88117981 -18 7 C-18 6.67 -18 6.34 -18 6 C-17.03578125 5.81824219 -16.0715625 5.63648438 -15.078125 5.44921875 C-13.81484375 5.19785156 -12.5515625 4.94648438 -11.25 4.6875 C-9.99703125 4.44386719 -8.7440625 4.20023438 -7.453125 3.94921875 C-4.2166938 3.05956628 -2.45888047 2.216718 0 0 Z " fill="#1B93D1" transform="translate(434,211)"/>
<path d="M0 0 C4.30764815 1.56641751 8.06171464 3.68336156 12 6 C12 6.33 12 6.66 12 7 C7.38 7 2.76 7 -2 7 C-2 6.01 -2 5.02 -2 4 C-1.34 3.67 -0.68 3.34 0 3 C0 2.01 0 1.02 0 0 Z " fill="#EFEFEF" transform="translate(403,440)"/>
<path d="M0 0 C0 0.66 0 1.32 0 2 C0.99 2.33 1.98 2.66 3 3 C-4.35793733 3.91160286 -11.58982977 4.11459026 -19 4 C-12.87317195 -0.08455203 -7.19293858 -1.68345371 0 0 Z " fill="#208DCB" transform="translate(397,225)"/>
<path d="M0 0 C0.66 0 1.32 0 2 0 C2.12375 0.639375 2.2475 1.27875 2.375 1.9375 C2.684375 2.9584375 2.684375 2.9584375 3 4 C3.66 4.33 4.32 4.66 5 5 C5.33 4.34 5.66 3.68 6 3 C6.99 4.32 7.98 5.64 9 7 C3.82421875 10.22265625 3.82421875 10.22265625 2 11 C1.01 10.67 0.02 10.34 -1 10 C-1 9.34 -1 8.68 -1 8 C-1.66 7.34 -2.32 6.68 -3 6 C-2.01 5.34 -1.02 4.68 0 4 C0 2.68 0 1.36 0 0 Z " fill="#EDEDED" transform="translate(388,336)"/>
<path d="M0 0 C1.15628906 0.00515625 2.31257812 0.0103125 3.50390625 0.015625 C4.65761719 0.01046875 5.81132812 0.0053125 7 0 C10.06640625 0.265625 10.06640625 0.265625 13.06640625 2.265625 C12.09703125 2.554375 11.12765625 2.843125 10.12890625 3.140625 C6.95976422 3.90777182 6.95976422 3.90777182 6.06640625 6.265625 C4.08640625 6.265625 2.10640625 6.265625 0.06640625 6.265625 C1.05640625 5.605625 2.04640625 4.945625 3.06640625 4.265625 C0.42640625 3.605625 -2.21359375 2.945625 -4.93359375 2.265625 C-2.93359375 0.265625 -2.93359375 0.265625 0 0 Z " fill="#0B0207" transform="translate(217.93359375,228.734375)"/>
<path d="M0 0 C0.33 0.99 0.66 1.98 1 3 C0.071875 3.8971875 0.071875 3.8971875 -0.875 4.8125 C-3.13676954 7.00811144 -3.13676954 7.00811144 -5 10 C-5.99 10 -6.98 10 -8 10 C-7.67 10.99 -7.34 11.98 -7 13 C-6.34 13.33 -5.68 13.66 -5 14 C-5 14.66 -5 15.32 -5 16 C-7.97 16 -10.94 16 -14 16 C-12.03699519 12.07399037 -10.22611601 9.90350441 -7 7 C-6.34 7 -5.68 7 -5 7 C-4.34 5.68 -3.68 4.36 -3 3 C-2.34 3 -1.68 3 -1 3 C-0.67 2.01 -0.34 1.02 0 0 Z " fill="#060B1D" transform="translate(448,208)"/>
<path d="M0 0 C1.6266848 0.28211877 3.25132896 0.57602375 4.875 0.875 C5.77992188 1.03742188 6.68484375 1.19984375 7.6171875 1.3671875 C10 2 10 2 12 4 C4.88868736 4.1391722 -2.05382537 3.73492545 -9.125 3 C-10.55972656 2.85691406 -10.55972656 2.85691406 -12.0234375 2.7109375 C-14.34943754 2.4783375 -16.67488959 2.24130321 -19 2 C-19 1.67 -19 1.34 -19 1 C-16.95840905 0.9727384 -14.91671037 0.95348655 -12.875 0.9375 C-11.73804688 0.92589844 -10.60109375 0.91429687 -9.4296875 0.90234375 C-6.1870844 0.994673 -3.18067388 1.38610094 0 2 C0 1.34 0 0.68 0 0 Z " fill="#2B88C3" transform="translate(230,225)"/>
<path d="M0 0 C1.98 0.66 3.96 1.32 6 2 C6 2.99 6 3.98 6 5 C4.25 6.60546875 4.25 6.60546875 2 8.1875 C1.2575 8.71730469 0.515 9.24710937 -0.25 9.79296875 C-0.8275 10.19128906 -1.405 10.58960938 -2 11 C-1.814375 10.2575 -1.62875 9.515 -1.4375 8.75 C-0.82527572 6.07770627 -0.82527572 6.07770627 -1.5625 3.8125 C-1.706875 3.214375 -1.85125 2.61625 -2 2 C-1.34 1.34 -0.68 0.68 0 0 Z " fill="#0A0A0A" transform="translate(386,329)"/>
<path d="M0 0 C0.99 0.33 1.98 0.66 3 1 C3 3.62113708 2.68707555 5.50935112 2 8 C0.35 8.33 -1.3 8.66 -3 9 C-3 8.34 -3 7.68 -3 7 C-3.99 7 -4.98 7 -6 7 C-6 6.01 -6 5.02 -6 4 C-3.1875 1.75 -3.1875 1.75 0 0 Z " fill="#119FEF" transform="translate(441,207)"/>
<path d="M0 0 C3.63 2.31 7.26 4.62 11 7 C10.01 7.99 9.02 8.98 8 10 C2.39426523 8.53763441 2.39426523 8.53763441 0.625 6.125 C0 4 0 4 0 0 Z " fill="#F4F4F4" transform="translate(176,301)"/>
<path d="M0 0 C0.99 0 1.98 0 3 0 C3 0.66 3 1.32 3 2 C3.66 2.33 4.32 2.66 5 3 C2.27521226 6.36591427 -1.06856792 7.44226276 -5 9 C-5.33 7.35 -5.66 5.7 -6 4 C-4.02 3.01 -2.04 2.02 0 1 C0 0.67 0 0.34 0 0 Z " fill="#F7F7F7" transform="translate(538,81)"/>
<path d="M0 0 C4.01548242 0.61776653 6.8042108 2.56842126 10 5 C11.375 7.25 11.375 7.25 12 9 C9.69 8.34 7.38 7.68 5 7 C5 6.34 5 5.68 5 5 C2.525 4.01 2.525 4.01 0 3 C0 2.01 0 1.02 0 0 Z " fill="#12040F" transform="translate(148,179)"/>
<path d="M0 0 C0.33 0 0.66 0 1 0 C1 5.28 1 10.56 1 16 C-1.00993705 12.98509443 -1.72623341 10.7850073 -2.625 7.3125 C-2.88539063 6.31863281 -3.14578125 5.32476562 -3.4140625 4.30078125 C-3.60742188 3.54152344 -3.80078125 2.78226562 -4 2 C-3.01 2 -2.02 2 -1 2 C-0.67 1.34 -0.34 0.68 0 0 Z " fill="#A9A9A9" transform="translate(293,326)"/>
<path d="M0 0 C4.04420651 1.77945087 7.46078487 4.39529673 11 7 C10.01 7.495 10.01 7.495 9 8 C9.33 9.32 9.66 10.64 10 12 C5.99620626 9.02575322 3.00297061 5.94676137 0 2 C0 1.34 0 0.68 0 0 Z " fill="#2896D6" transform="translate(155,188)"/>
<path d="M0 0 C-7.51168405 5.05888926 -14.42772503 4.02688711 -23 3 C-23 2.67 -23 2.34 -23 2 C-21.87980469 1.86722656 -20.75960938 1.73445312 -19.60546875 1.59765625 C-18.13279271 1.41943431 -16.66013753 1.24103989 -15.1875 1.0625 C-14.44951172 0.97548828 -13.71152344 0.88847656 -12.95117188 0.79882812 C-1.81135574 -0.56214489 -1.81135574 -0.56214489 0 0 Z " fill="#041E3C" transform="translate(431,224)"/>
<path d="M0 0 C-2.28765111 1.67243423 -4.57973892 3.33806927 -6.875 5 C-7.52597656 5.47695312 -8.17695313 5.95390625 -8.84765625 6.4453125 C-13.7734375 10 -13.7734375 10 -16 10 C-14.74874616 6.24623848 -13.4347596 5.75926711 -10 4 C-9.34 4 -8.68 4 -8 4 C-7.896875 3.360625 -7.79375 2.72125 -7.6875 2.0625 C-7.460625 1.381875 -7.23375 0.70125 -7 0 C-3.86650268 -1.04449911 -3.01031744 -0.93423645 0 0 Z " fill="#031633" transform="translate(464,189)"/>
<path d="M0 0 C2.9375 0.8125 2.9375 0.8125 6 2 C7.25541557 5.76624671 6.37061958 7.37188934 5 11 C3 10 3 10 2.1484375 7.71484375 C1.89320313 6.79832031 1.63796875 5.88179688 1.375 4.9375 C1.11460937 4.01839844 0.85421875 3.09929687 0.5859375 2.15234375 C0.39257812 1.44207031 0.19921875 0.73179687 0 0 Z " fill="#EEEEEE" transform="translate(302,368)"/>
<path d="M0 0 C-0.99 2.31 -1.98 4.62 -3 7 C-3.66 7 -4.32 7 -5 7 C-5.66 6.34 -6.32 5.68 -7 5 C-7.99 4.34 -8.98 3.68 -10 3 C-3.375 -1.125 -3.375 -1.125 0 0 Z " fill="#060606" transform="translate(382,353)"/>
<path d="M0 0 C0.5 2 0.5 2 1 4 C1.2475 4.680625 1.495 5.36125 1.75 6.0625 C2 8 2 8 0.6875 9.75 C-1 11 -1 11 -3 11 C-3.33 8.36 -3.66 5.72 -4 3 C-2.68 2.01 -1.36 1.02 0 0 Z " fill="#A9A9A9" transform="translate(270,246)"/>
<path d="M0 0 C0.33 0 0.66 0 1 0 C1 5.61 1 11.22 1 17 C0.34 17.33 -0.32 17.66 -1 18 C-2.32924887 15.34150227 -1.91993945 13.63290881 -1.625 10.6875 C-1.53476562 9.74261719 -1.44453125 8.79773438 -1.3515625 7.82421875 C-1.02220627 5.17839038 -0.56005748 2.60569116 0 0 Z " fill="#D6D6D6" transform="translate(493,134)"/>
<path d="M0 0 C0.75 1.75 0.75 1.75 1 4 C-0.9375 6.125 -0.9375 6.125 -3 8 C-3 8.66 -3 9.32 -3 10 C-4.65 10 -6.3 10 -8 10 C-7.04367001 8.70684939 -6.08486149 7.41553147 -5.125 6.125 C-4.59132813 5.40570313 -4.05765625 4.68640625 -3.5078125 3.9453125 C-2 2 -2 2 0 0 Z " fill="#0A1329" transform="translate(463,192)"/>
<path d="M0 0 C0.66 0 1.32 0 2 0 C2.33 1.65 2.66 3.3 3 5 C3.66 5 4.32 5 5 5 C5 6.32 5 7.64 5 9 C3.68 9.33 2.36 9.66 1 10 C-0.60725635 6.78548731 -0.05748185 3.56387464 0 0 Z " fill="#130109" transform="translate(152,190)"/>
<path d="M0 0 C2.31 0 4.62 0 7 0 C7 2.64 7 5.28 7 8 C6.34 8 5.68 8 5 8 C5 6.68 5 5.36 5 4 C3.35 4 1.7 4 0 4 C0 2.68 0 1.36 0 0 Z " fill="#0B0507" transform="translate(169,192)"/>
<path d="M0 0 C6.17222879 1.24028238 12.06682122 2.89603589 18 5 C18 5.33 18 5.66 18 6 C12.8189366 7.36139053 10.2813915 6.59764648 5.625 4.0625 C4.56539062 3.49660156 3.50578125 2.93070312 2.4140625 2.34765625 C1.61742188 1.90292969 0.82078125 1.45820312 0 1 C0 0.67 0 0.34 0 0 Z " fill="#E0E0E0" transform="translate(29,65)"/>
<path d="M0 0 C0.66 0.33 1.32 0.66 2 1 C2.33 1.99 2.66 2.98 3 4 C4.95597184 5.39712274 6.95436401 6.73779907 9 8 C8.67 8.99 8.34 9.98 8 11 C4.37 8.36 0.74 5.72 -3 3 C-2.01 2.01 -1.02 1.02 0 0 Z " fill="#191919" transform="translate(177,297)"/>
<path d="M0 0 C1.9375 1.375 1.9375 1.375 2.6875 4 C2.77 4.78375 2.8525 5.5675 2.9375 6.375 C-0.63825896 6.375 -2.11545935 5.28659393 -5.0625 3.375 C-4.7325 2.385 -4.4025 1.395 -4.0625 0.375 C-2.0625 -0.625 -2.0625 -0.625 0 0 Z " fill="#EFEFEF" transform="translate(141.0625,288.625)"/>
<path d="M0 0 C3.32812571 0.57381478 4.69842455 1.59380748 7 4 C7.66 4 8.32 4 9 4 C9 4.99 9 5.98 9 7 C9.66 7 10.32 7 11 7 C11.33 8.65 11.66 10.3 12 12 C7.47384007 8.32167983 3.60575001 4.58913637 0 0 Z " fill="#208FD2" transform="translate(168,204)"/>
<path d="M0 0 C4.41889613 1.35021826 6.34345343 3.26115668 9 7 C4.545 6.01 4.545 6.01 0 5 C0 3.35 0 1.7 0 0 Z " fill="#070F28" transform="translate(157,195)"/>
<path d="M0 0 C0 0.99 0 1.98 0 3 C-0.66 3 -1.32 3 -2 3 C-2 3.66 -2 4.32 -2 5 C-1.34 5.33 -0.68 5.66 0 6 C-0.78375 6.12375 -1.5675 6.2475 -2.375 6.375 C-5.14057822 6.79117993 -5.14057822 6.79117993 -7 9 C-8 6 -8 6 -7 3 C-3.4375 1.3125 -3.4375 1.3125 0 0 Z " fill="#121212" transform="translate(431,135)"/>
<path d="M0 0 C-1.93108963 1.03290841 -3.870118 2.05098672 -5.8125 3.0625 C-6.89144531 3.63097656 -7.97039063 4.19945313 -9.08203125 4.78515625 C-12 6 -12 6 -15 5 C-15 4.34 -15 3.68 -15 3 C-13.06643218 2.30151736 -11.12797702 1.61655186 -9.1875 0.9375 C-8.10855469 0.55464844 -7.02960937 0.17179687 -5.91796875 -0.22265625 C-3 -1 -3 -1 0 0 Z " fill="#CACACA" transform="translate(580,68)"/>
<path d="M0 0 C3.96 0 7.92 0 12 0 C7.49667324 3.00221784 3.42232421 4.31896025 -2 4 C-1.34 3.67 -0.68 3.34 0 3 C0 2.01 0 1.02 0 0 Z " fill="#050C1B" transform="translate(378,224)"/>
<path d="M0 0 C3.4375 0.8125 3.4375 0.8125 7 2 C7.33 2.99 7.66 3.98 8 5 C9.65 5 11.3 5 13 5 C13 5.99 13 6.98 13 8 C7.32744679 6.75203829 4.21832726 5.0125552 0 1 C0 0.67 0 0.34 0 0 Z " fill="#04182F" transform="translate(161,191)"/>
<path d="M0 0 C0.66 0 1.32 0 2 0 C2.33 1.65 2.66 3.3 3 5 C3.66 5 4.32 5 5 5 C5 5.99 5 6.98 5 8 C3.35 8 1.7 8 0 8 C-0.98120464 4.94736336 -0.98120464 3.05263664 0 0 Z " fill="#100604" transform="translate(169,208)"/>
<path d="M0 0 C-2.99481865 4.22797927 -2.99481865 4.22797927 -5 6 C-8.3125 6.375 -8.3125 6.375 -11 6 C-7.34769214 1.25199978 -6.01084259 -0.15818007 0 0 Z " fill="#10A7F3" transform="translate(454,200)"/>
<path d="M0 0 C1.32 0.33 2.64 0.66 4 1 C4.625 4.375 4.625 4.375 5 8 C4.34 8.66 3.68 9.32 3 10 C3.33 8.02 3.66 6.04 4 4 C3.34 4 2.68 4 2 4 C2 4.66 2 5.32 2 6 C0.68 5.34 -0.64 4.68 -2 4 C-1.34 2.68 -0.68 1.36 0 0 Z " fill="#101010" transform="translate(246,162)"/>
<path d="M0 0 C1.65 0 3.3 0 5 0 C5.33 2.64 5.66 5.28 6 8 C4.02 8 2.04 8 0 8 C0.33 7.01 0.66 6.02 1 5 C1.66 5 2.32 5 3 5 C2.34 4.01 1.68 3.02 1 2 C0.67 1.34 0.34 0.68 0 0 Z " fill="#091223" transform="translate(464,184)"/>
<path d="M0 0 C0.33 0.66 0.66 1.32 1 2 C1.99 2.33 2.98 2.66 4 3 C4.6875 5.0625 4.6875 5.0625 5 7 C4.01 7.66 3.02 8.32 2 9 C-1.07692308 4.56923077 -1.07692308 4.56923077 -0.6875 1.6875 C-0.460625 1.130625 -0.23375 0.57375 0 0 Z " fill="#101010" transform="translate(211,320)"/>
<path d="M0 0 C0 0.66 0 1.32 0 2 C-3.3 2.33 -6.6 2.66 -10 3 C-9.67 2.01 -9.34 1.02 -9 0 C-5.8033 -1.37001429 -3.30096158 -0.8252404 0 0 Z " fill="#04A6FD" transform="translate(421,220)"/>
<path d="M0 0 C0 1.66666667 0 3.33333333 0 5 C-7.5 5.375 -7.5 5.375 -12 2 C-8.04 1.34 -4.08 0.68 0 0 Z " fill="#0BA8F8" transform="translate(436,215)"/>
<path d="M0 0 C0 2 0 2 -2.3125 4.5 C-5 7 -5 7 -8 9 C-8 8.34 -8 7.68 -8 7 C-8.66 6.67 -9.32 6.34 -10 6 C-8.71283353 4.99421411 -7.42011342 3.99553202 -6.125 3 C-5.40570313 2.443125 -4.68640625 1.88625 -3.9453125 1.3125 C-2 0 -2 0 0 0 Z " fill="#3082AF" transform="translate(467,187)"/>
<path d="M0 0 C2.31 0.33 4.62 0.66 7 1 C7.33 1.99 7.66 2.98 8 4 C4.79937313 5.60031344 2.27728194 4.03173691 -1 3 C-0.67 2.01 -0.34 1.02 0 0 Z " fill="#03040D" transform="translate(193,228)"/>
<path d="M0 0 C6.13053511 -0.32712342 10.62669111 -0.39366878 16 3 C12.23331402 4.3805087 9.55210827 3.59568159 5.75 2.5625 C4.13351563 2.13130859 4.13351563 2.13130859 2.484375 1.69140625 C1.25460938 1.34916016 1.25460938 1.34916016 0 1 C0 0.67 0 0.34 0 0 Z " fill="#021D35" transform="translate(204,217)"/>
<path d="M0 0 C0.33 0.99 0.66 1.98 1 3 C0.071875 3.8971875 0.071875 3.8971875 -0.875 4.8125 C-3.13676954 7.00811144 -3.13676954 7.00811144 -5 10 C-7.625 10.6875 -7.625 10.6875 -10 11 C-8.625 9 -8.625 9 -7 7 C-6.34 7 -5.68 7 -5 7 C-4.34 5.68 -3.68 4.36 -3 3 C-2.34 3 -1.68 3 -1 3 C-0.67 2.01 -0.34 1.02 0 0 Z " fill="#031D3D" transform="translate(448,208)"/>
<path d="M0 0 C1.32 0.33 2.64 0.66 4 1 C0.7 3.64 -2.6 6.28 -6 9 C-6.66 8.67 -7.32 8.34 -8 8 C-8 7.34 -8 6.68 -8 6 C-7.236875 5.7525 -6.47375 5.505 -5.6875 5.25 C-2.7635955 3.89004442 -1.69995644 2.68414174 0 0 Z " fill="#031035" transform="translate(444,199)"/>
<path d="M0 0 C2.97 0.33 5.94 0.66 9 1 C9 1.99 9 2.98 9 4 C3.48 4.368 3.48 4.368 1.125 2.5625 C0 1 0 1 0 0 Z " fill="#159FED" transform="translate(221,223)"/>
<path d="M0 0 C0.7734375 0.61875 0.7734375 0.61875 1.5625 1.25 C-1.72213659 3.43975773 -4.64446275 4.24806563 -8.4375 5.25 C-8.7675 4.59 -9.0975 3.93 -9.4375 3.25 C-3.0375 -0.93461538 -3.0375 -0.93461538 0 0 Z " fill="#0F0F0F" transform="translate(339.4375,145.75)"/>
<path d="M0 0 C2.475 0.99 2.475 0.99 5 2 C4.67 2.99 4.34 3.98 4 5 C2.35 5.33 0.7 5.66 -1 6 C-1.33 5.01 -1.66 4.02 -2 3 C-1.34 3 -0.68 3 0 3 C0 2.01 0 1.02 0 0 Z " fill="#F1F1F1" transform="translate(203,338)"/>
<path d="M0 0 C3.16115776 1.36983503 3.9927092 1.9890638 6 5 C5.34 5.66 4.68 6.32 4 7 C2.35 5.68 0.7 4.36 -1 3 C-0.67 2.01 -0.34 1.02 0 0 Z " fill="#141414" transform="translate(153,281)"/>
<path d="M0 0 C1.98 0 3.96 0 6 0 C3.95995603 3.06006595 3.30730675 3.77157178 0 5 C-2.75 5.125 -2.75 5.125 -5 5 C-5 4.34 -5 3.68 -5 3 C-3.35 3 -1.7 3 0 3 C0 2.01 0 1.02 0 0 Z " fill="#100102" transform="translate(416,229)"/>
<path d="M0 0 C2.97 0 5.94 0 9 0 C9 0.66 9 1.32 9 2 C8.01 2 7.02 2 6 2 C5.67 2.66 5.34 3.32 5 4 C3.35 3.67 1.7 3.34 0 3 C0 2.01 0 1.02 0 0 Z " fill="#160008" transform="translate(394,210)"/>
<path d="M0 0 C0.99 0.33 1.98 0.66 3 1 C3 2.98 3 4.96 3 7 C1.68 7.33 0.36 7.66 -1 8 C-1.125 2.25 -1.125 2.25 0 0 Z " fill="#EDEDED" transform="translate(491,150)"/>
<path d="M0 0 C0.66 0.33 1.32 0.66 2 1 C1.25 3.4375 1.25 3.4375 0 6 C-1.9375 6.9375 -1.9375 6.9375 -4 7 C-4.99 6.34 -5.98 5.68 -7 5 C-4.69 3.35 -2.38 1.7 0 0 Z " fill="#ECECEC" transform="translate(465,280)"/>
<path d="M0 0 C2.97 0 5.94 0 9 0 C8.01 1.485 8.01 1.485 7 3 C3.375 3.1875 3.375 3.1875 0 3 C0 2.01 0 1.02 0 0 Z " fill="#1D98D5" transform="translate(427,220)"/>
<path d="M0 0 C1.14926266 0.95421808 2.29430541 1.91352045 3.4375 2.875 C4.07558594 3.40867188 4.71367187 3.94234375 5.37109375 4.4921875 C7 6 7 6 8 8 C6.35 7.67 4.7 7.34 3 7 C3 6.34 3 5.68 3 5 C2.34 5 1.68 5 1 5 C0.67 3.35 0.34 1.7 0 0 Z " fill="#04172F" transform="translate(171,208)"/>
<path d="M0 0 C-0.33 1.98 -0.66 3.96 -1 6 C-2.32 5.67 -3.64 5.34 -5 5 C-5 3.68 -5 2.36 -5 1 C-3 0 -3 0 0 0 Z " fill="#110104" transform="translate(461,183)"/>
<path d="M0 0 C0.66 0.99 1.32 1.98 2 3 C1.5359375 3.7734375 1.5359375 3.7734375 1.0625 4.5625 C-0.29059287 7.66665423 -0.61359424 10.65115007 -1 14 C-2.70097842 11.39850359 -3.01268885 10.15226623 -2.75 7 C-2.09449955 4.37799822 -1.34306681 2.32798248 0 0 Z " fill="#7C7C7C" transform="translate(361,165)"/>
<path d="M0 0 C4.95 0.99 4.95 0.99 10 2 C10 3.32 10 4.64 10 6 C6.51329166 4.8905928 3.22515763 3.73662334 0 2 C0 1.34 0 0.68 0 0 Z " fill="#E6E6E6" transform="translate(136,114)"/>
<path d="M0 0 C0.66 0.33 1.32 0.66 2 1 C0.35 2.65 -1.3 4.3 -3 6 C-5.475 5.01 -5.475 5.01 -8 4 C-5.31143836 2.20762558 -3.0466145 1.01553817 0 0 Z " fill="#E3E3E3" transform="translate(512,89)"/>
<path d="M0 0 C1.65 1.65 3.3 3.3 5 5 C4.01 6.485 4.01 6.485 3 8 C0.9375 6.25 0.9375 6.25 -1 4 C-0.75 1.75 -0.75 1.75 0 0 Z " fill="#E0E0E0" transform="translate(107,432)"/>
<path d="M0 0 C2.97 1.98 2.97 1.98 6 4 C5.34 4.66 4.68 5.32 4 6 C1.375 5.625 1.375 5.625 -1 5 C-1.33 3.68 -1.66 2.36 -2 1 C-1.34 0.67 -0.68 0.34 0 0 Z " fill="#EAEAEA" transform="translate(214,329)"/>
<path d="M0 0 C3 1.8125 3 1.8125 6 4 C6 4.99 6 5.98 6 7 C4.0625 6.625 4.0625 6.625 2 6 C1.67 5.34 1.34 4.68 1 4 C0.01 4.495 0.01 4.495 -1 5 C-0.67 3.35 -0.34 1.7 0 0 Z " fill="#151515" transform="translate(162,309)"/>
<path d="M0 0 C0.99 0.33 1.98 0.66 3 1 C3 2.32 3 3.64 3 5 C1.1875 5.6875 1.1875 5.6875 -1 6 C-2.75 4.5625 -2.75 4.5625 -4 3 C-2.1875 1.4375 -2.1875 1.4375 0 0 Z " fill="#0DABF2" transform="translate(441,207)"/>
<path d="M0 0 C1.65 0.33 3.3 0.66 5 1 C1.8745041 3.64465038 -1.08788267 4.84414715 -5 6 C-3.35 4.02 -1.7 2.04 0 0 Z " fill="#E3E3E3" transform="translate(360,359)"/>
<path d="M0 0 C1.65 0 3.3 0 5 0 C5.66 1.32 6.32 2.64 7 4 C6.34 4.66 5.68 5.32 5 6 C4.67 5.01 4.34 4.02 4 3 C2.68 3 1.36 3 0 3 C0 2.01 0 1.02 0 0 Z " fill="#09AAFB" transform="translate(180,213)"/>
<path d="M0 0 C0.66 0.66 1.32 1.32 2 2 C-0.31 2.66 -2.62 3.32 -5 4 C-5.99 3.01 -6.98 2.02 -8 1 C-5.23749964 -0.38125018 -3.05268901 -0.19079306 0 0 Z " fill="#0C0C0C" transform="translate(454,107)"/>
<path d="M0 0 C0.66 0.33 1.32 0.66 2 1 C0.6875 4.4375 0.6875 4.4375 -1 8 C-1.99 8.33 -2.98 8.66 -4 9 C-3.71848913 7.68528432 -3.42446661 6.37324233 -3.125 5.0625 C-2.96257812 4.33160156 -2.80015625 3.60070312 -2.6328125 2.84765625 C-2 1 -2 1 0 0 Z " fill="#E7E7E7" transform="translate(110,317)"/>
<path d="M0 0 C2.97 1.98 2.97 1.98 6 4 C5.34 4.66 4.68 5.32 4 6 C1.375 5.625 1.375 5.625 -1 5 C-0.67 3.35 -0.34 1.7 0 0 Z " fill="#E7E7E7" transform="translate(193,313)"/>
<path d="M0 0 C2.64 1.65 5.28 3.3 8 5 C5.53721199 6.231394 3.7204945 6.07159196 1 6 C0.4465236 3.92446352 0 2.15634036 0 0 Z " fill="#E8E8E8" transform="translate(176,301)"/>
<path d="M0 0 C1.41750563 0.11509661 2.83401169 0.24253658 4.25 0.375 C5.03890625 0.44460937 5.8278125 0.51421875 6.640625 0.5859375 C9 1 9 1 13 3 C9.7 3 6.4 3 3 3 C3 2.34 3 1.68 3 1 C2.01 0.67 1.02 0.34 0 0 Z " fill="#1996CB" transform="translate(195,216)"/>
<path d="M0 0 C1.32 0.33 2.64 0.66 4 1 C2.38405168 3.04119788 0.7143618 5.04072937 -1 7 C-1.66 7 -2.32 7 -3 7 C-2.38722388 4.03824877 -1.74627478 2.61941217 0 0 Z " fill="#0E0205" transform="translate(455,202)"/>
<path d="M0 0 C0.99 0.33 1.98 0.66 3 1 C3 1.66 3 2.32 3 3 C3.598125 3.268125 4.19625 3.53625 4.8125 3.8125 C6.97224808 4.98493467 8.35790256 6.19369282 10 8 C5.60316512 6.80086322 2.90159066 5.5711885 0 2 C0 1.34 0 0.68 0 0 Z " fill="#2494D2" transform="translate(172,200)"/>
<path d="M0 0 C0.99 0.33 1.98 0.66 3 1 C3 1.66 3 2.32 3 3 C3.33 3.66 3.66 4.32 4 5 C2.02 5.66 0.04 6.32 -2 7 C-1.814375 6.38125 -1.62875 5.7625 -1.4375 5.125 C-0.76313824 2.95839822 -0.76313824 2.95839822 -2 1 C-1.34 0.67 -0.68 0.34 0 0 Z " fill="#E9E9E9" transform="translate(374,153)"/>
<path d="M0 0 C0.99 0.33 1.98 0.66 3 1 C3.33 2.32 3.66 3.64 4 5 C1.36 4.34 -1.28 3.68 -4 3 C-2.1875 1.4375 -2.1875 1.4375 0 0 Z " fill="#1A1A1A" transform="translate(189,115)"/>
<path d="M0 0 C0.66 0.33 1.32 0.66 2 1 C1.67 2.32 1.34 3.64 1 5 C-0.98 5.33 -2.96 5.66 -5 6 C-4.67 5.01 -4.34 4.02 -4 3 C-3.34 3 -2.68 3 -2 3 C-2 2.34 -2 1.68 -2 1 C-1.34 0.67 -0.68 0.34 0 0 Z " fill="#212121" transform="translate(582,65)"/>
<path d="M0 0 C0.99 0.33 1.98 0.66 3 1 C4.1875 3.5625 4.1875 3.5625 5 6 C4.01 6 3.02 6 2 6 C1.34 5.34 0.68 4.68 0 4 C0 2.68 0 1.36 0 0 Z " fill="#EAEAEA" transform="translate(97,421)"/>
<path d="M0 0 C4.75 0.875 4.75 0.875 7 2 C7 2.66 7 3.32 7 4 C7.66 4.33 8.32 4.66 9 5 C8.01 5.33 7.02 5.66 6 6 C2.8125 3.625 2.8125 3.625 0 1 C0 0.67 0 0.34 0 0 Z " fill="#1B1B1B" transform="translate(236,346)"/>
<path d="M0 0 C0.33 0.99 0.66 1.98 1 3 C-1.22189824 5.22189824 -3.08482708 5.92598892 -6 7 C-6 6.01 -6 5.02 -6 4 C-3 1.8125 -3 1.8125 0 0 Z " fill="#1B1B1B" transform="translate(401,339)"/>
<path d="M0 0 C0.66 0.66 1.32 1.32 2 2 C0.515 7.445 0.515 7.445 -1 13 C-1.33 13 -1.66 13 -2 13 C-1.85966889 11.02043559 -1.7125877 9.04134859 -1.5625 7.0625 C-1.48128906 5.96035156 -1.40007812 4.85820312 -1.31640625 3.72265625 C-1 1 -1 1 0 0 Z " fill="#828282" transform="translate(320,331)"/>
<path d="M0 0 C0.33 0.99 0.66 1.98 1 3 C0.01 3.495 0.01 3.495 -1 4 C-1.66 3.67 -2.32 3.34 -3 3 C-3.33 3.66 -3.66 4.32 -4 5 C-4.99 5.495 -4.99 5.495 -6 6 C-6.66 5.34 -7.32 4.68 -8 4 C-2.25 0 -2.25 0 0 0 Z " fill="#181818" transform="translate(423,327)"/>
<path d="M0 0 C1.125 1.75 1.125 1.75 2 4 C1.125 6.25 1.125 6.25 0 8 C-0.99 8 -1.98 8 -3 8 C-2.690625 7.236875 -2.38125 6.47375 -2.0625 5.6875 C-1.32106407 3.81210323 -0.63771783 1.91315348 0 0 Z " fill="#959595" transform="translate(323,244)"/>
<path d="M0 0 C2.64 0 5.28 0 8 0 C8 0.99 8 1.98 8 3 C8.99 3.33 9.98 3.66 11 4 C3.49230769 3.38461538 3.49230769 3.38461538 1 1.4375 C0.67 0.963125 0.34 0.48875 0 0 Z " fill="#2286BD" transform="translate(184,220)"/>
<path d="M0 0 C2.92824652 0.97608217 4.61426621 2.10786631 7 4 C6 5 6 5 2.9375 5.0625 C1.4834375 5.0315625 1.4834375 5.0315625 0 5 C0 3.35 0 1.7 0 0 Z " fill="#061125" transform="translate(424,210)"/>
<path d="M0 0 C2.97 0.99 5.94 1.98 9 3 C9 3.33 9 3.66 9 4 C2.9453125 4.1953125 2.9453125 4.1953125 1 4 C0.34 3.34 -0.32 2.68 -1 2 C-0.67 1.34 -0.34 0.68 0 0 Z " fill="#131313" transform="translate(109,104)"/>
<path d="M0 0 C2.64 0 5.28 0 8 0 C8 0.99 8 1.98 8 3 C7.01 3.33 6.02 3.66 5 4 C5 3.34 5 2.68 5 2 C3.35 2 1.7 2 0 2 C0 1.34 0 0.68 0 0 Z " fill="#161616" transform="translate(317,451)"/>
<path d="M0 0 C0.99 0.66 1.98 1.32 3 2 C2.34 2.66 1.68 3.32 1 4 C1.33 4.66 1.66 5.32 2 6 C0.35 6 -1.3 6 -3 6 C-1.125 1.125 -1.125 1.125 0 0 Z " fill="#FAFAFA" transform="translate(386,338)"/>
<path d="M0 0 C1.32 0.66 2.64 1.32 4 2 C2.68 3.32 1.36 4.64 0 6 C-0.38218767 4.34385343 -0.71395102 2.67542976 -1 1 C-0.67 0.67 -0.34 0.34 0 0 Z " fill="#131313" transform="translate(389,330)"/>
<path d="M0 0 C2.64 0 5.28 0 8 0 C8 0.66 8 1.32 8 2 C6.02 2.33 4.04 2.66 2 3 C1.34 2.01 0.68 1.02 0 0 Z " fill="#030615" transform="translate(190,208)"/>
<path d="M0 0 C2.475 0.495 2.475 0.495 5 1 C5 2.65 5 4.3 5 6 C3.68 5.67 2.36 5.34 1 5 C0.67 3.35 0.34 1.7 0 0 Z " fill="#101010" transform="translate(211,122)"/>
<path d="M0 0 C0.99 0.33 1.98 0.66 3 1 C2.40138258 3.35171131 1.73075648 5.6859378 1 8 C0.01 8.495 0.01 8.495 -1 9 C-0.67 6.03 -0.34 3.06 0 0 Z " fill="#E6E6E6" transform="translate(84,395)"/>
<path d="M0 0 C3.465 1.485 3.465 1.485 7 3 C6.01 3.99 5.02 4.98 4 6 C2 4.6875 2 4.6875 0 3 C0 2.01 0 1.02 0 0 Z " fill="#E8E8E8" transform="translate(284,375)"/>
<path d="M0 0 C0.99 0.33 1.98 0.66 3 1 C2.34 1.66 1.68 2.32 1 3 C-1.125 2.625 -1.125 2.625 -3 2 C-2.01 1.34 -1.02 0.68 0 0 Z M-3 3 C-3.33 3.99 -3.66 4.98 -4 6 C-4.99 5.34 -5.98 4.68 -7 4 C-5 3 -5 3 -3 3 Z " fill="#181818" transform="translate(379,352)"/>
<path d="M0 0 C2 1 2 1 3 3 C2.34 3 1.68 3 1 3 C1 3.66 1 4.32 1 5 C-0.98 5 -2.96 5 -5 5 C-3.35 3.35 -1.7 1.7 0 0 Z " fill="#DFDFDF" transform="translate(440,297)"/>
<path d="M0 0 C2.31 0.66 4.62 1.32 7 2 C6.01 2.495 6.01 2.495 5 3 C5 3.66 5 4.32 5 5 C3.0625 4.1875 3.0625 4.1875 1 3 C0.67 2.01 0.34 1.02 0 0 Z " fill="#EAEAEA" transform="translate(124,281)"/>
<path d="M0 0 C0.66 0.66 1.32 1.32 2 2 C-1.465 4.97 -1.465 4.97 -5 8 C-3.375 2.25 -3.375 2.25 0 0 Z " fill="#909090" transform="translate(333,228)"/>
<path d="M0 0 C0 0.99 0 1.98 0 3 C0.99 3.33 1.98 3.66 3 4 C-0.71888239 3.49287967 -3.73454239 2.88391785 -7 1 C-4 0 -4 0 0 0 Z " fill="#051B36" transform="translate(227,220)"/>
<path d="M0 0 C2.31 0 4.62 0 7 0 C7 0.66 7 1.32 7 2 C4.69 2.33 2.38 2.66 0 3 C0 2.01 0 1.02 0 0 Z " fill="#130205" transform="translate(400,216)"/>
<path d="M0 0 C0.99 0 1.98 0 3 0 C3 0.66 3 1.32 3 2 C3.99 2 4.98 2 6 2 C6 2.66 6 3.32 6 4 C4.02 4 2.04 4 0 4 C0 2.68 0 1.36 0 0 Z " fill="#00070C" transform="translate(205,210)"/>
<path d="M0 0 C1.2065625 0.0309375 1.2065625 0.0309375 2.4375 0.0625 C-0.02403846 3.87788462 -0.02403846 3.87788462 -2.75 4.8125 C-3.348125 4.895 -3.94625 4.9775 -4.5625 5.0625 C-3.43829114 0.08386076 -3.43829114 0.08386076 0 0 Z " fill="#15050C" transform="translate(452.5625,191.9375)"/>
<path d="M0 0 C1.98 0.66 3.96 1.32 6 2 C6 2.99 6 3.98 6 5 C3.83125748 4.49396008 2.00032373 4.00016187 0 3 C0 2.01 0 1.02 0 0 Z " fill="#101010" transform="translate(219,151)"/>
<path d="M0 0 C0 0.66 0 1.32 0 2 C-2.31 2.66 -4.62 3.32 -7 4 C-7.33 3.34 -7.66 2.68 -8 2 C-4.91190305 0.23537317 -3.76687864 0 0 0 Z " fill="#131313" transform="translate(465,122)"/>
<path d="M0 0 C-2.61941217 1.74627478 -4.03824877 2.38722388 -7 3 C-7 2.34 -7 1.68 -7 1 C-7.66 0.67 -8.32 0.34 -9 0 C-5.93109813 -1.53445094 -3.29905734 -0.54984289 0 0 Z " fill="#111111" transform="translate(477,101)"/>
<path d="M0 0 C0 0.99 0 1.98 0 3 C-1.98 3.66 -3.96 4.32 -6 5 C-6 4.01 -6 3.02 -6 2 C-2.25 0 -2.25 0 0 0 Z " fill="#141414" transform="translate(557,79)"/>
<path d="M0 0 C0.66 0.33 1.32 0.66 2 1 C2.625 3.0625 2.625 3.0625 3 5 C0.07120629 4.37240135 -2.36095629 3.41377341 -5 2 C-2.625 0.9375 -2.625 0.9375 0 0 Z " fill="#171717" transform="translate(568,73)"/>
<path d="M0 0 C2.31 0 4.62 0 7 0 C6.34 1.32 5.68 2.64 5 4 C3.35 3.67 1.7 3.34 0 3 C0 2.01 0 1.02 0 0 Z " fill="#181818" transform="translate(197,458)"/>
<path d="M0 0 C-0.66 1.32 -1.32 2.64 -2 4 C-4.31 3.01 -6.62 2.02 -9 1 C-2.4 -1.2 -2.4 -1.2 0 0 Z " fill="#191919" transform="translate(253,353)"/>
<path d="M0 0 C0.99 0.33 1.98 0.66 3 1 C2.67 2.98 2.34 4.96 2 7 C1.01 6.67 0.02 6.34 -1 6 C-0.67 4.02 -0.34 2.04 0 0 Z " fill="#7E7E7E" transform="translate(322,321)"/>
<path d="M0 0 C0.99 0.33 1.98 0.66 3 1 C2.67 1.66 2.34 2.32 2 3 C2.33 3.99 2.66 4.98 3 6 C1.68 5.67 0.36 5.34 -1 5 C-1.33 3.68 -1.66 2.36 -2 1 C-1.34 0.67 -0.68 0.34 0 0 Z " fill="#080808" transform="translate(180,296)"/>
<path d="M0 0 C0.99 0.33 1.98 0.66 3 1 C3 2.32 3 3.64 3 5 C1.35 5 -0.3 5 -2 5 C-1.34 3.35 -0.68 1.7 0 0 Z " fill="#05070F" transform="translate(445,213)"/>
<path d="M0 0 C1.32 0 2.64 0 4 0 C4 2.31 4 4.62 4 7 C3.34 7 2.68 7 2 7 C1.34 4.69 0.68 2.38 0 0 Z " fill="#0A030B" transform="translate(180,200)"/>
<path d="M0 0 C2.88437779 1.29299694 4.87219421 2.65941363 7 5 C6.01 5.33 5.02 5.66 4 6 C2.62437146 4.71034824 1.29233607 3.37310707 0 2 C0 1.34 0 0.68 0 0 Z " fill="#3B88A8" transform="translate(155,188)"/>
<path d="M0 0 C4.455 0.99 4.455 0.99 9 2 C6 4 6 4 3.9375 3.8125 C2 3 2 3 0 0 Z " fill="#EEEEEE" transform="translate(247,139)"/>
<path d="M0 0 C1.65 0.33 3.3 0.66 5 1 C5 1.66 5 2.32 5 3 C3.02 3.33 1.04 3.66 -1 4 C-0.67 2.68 -0.34 1.36 0 0 Z " fill="#0D0D0D" transform="translate(360,137)"/>
<path d="M0 0 C2.475 0.99 2.475 0.99 5 2 C2.38058783 3.74627478 0.96175123 4.38722388 -2 5 C-1.34 3.35 -0.68 1.7 0 0 Z " fill="#222222" transform="translate(496,91)"/>
<path d="M0 0 C1.98 0.66 3.96 1.32 6 2 C5.67 3.32 5.34 4.64 5 6 C2.49642808 4.74821404 0.93566621 3.00018842 -1 1 C-0.67 0.67 -0.34 0.34 0 0 Z " fill="#111111" transform="translate(73,87)"/>
</svg>
